<svg width="54" height="56" viewBox="0 0 54 56" fill="none" xmlns="http://www.w3.org/2000/svg">
<path d="M7.50906 28.2318C7.50906 28.2318 5.43015 31.6947 1.00046 30.6009C1.00046 30.6009 0.145698 38.2441 7.05015 40.4125H15.2809V28.2318H7.50906Z" fill="#965959"/>
<path d="M15.3505 1.81866L8.16199 5.8553L10.1652 13.5916H15.3505H20.5358L22.5388 5.8553L15.3505 1.81866Z" fill="#FFE2E2"/>
<path d="M13.1832 20.3338H7.54041V28.2318C7.54041 32.5867 11.1038 36.2413 15.4583 36.1815C19.7047 36.1234 23.1606 32.6319 23.1606 28.3722V20.3338H13.1832Z" fill="#FFBB98"/>
<path d="M16.6695 36.07C16.2751 36.138 15.8703 36.1764 15.4585 36.1818C11.1031 36.2411 7.54016 32.5872 7.54016 28.232V22.0795C7.54016 21.1145 8.3218 20.3345 9.28508 20.3345H11.9023C10.9391 20.3345 10.1574 21.1145 10.1574 22.0795V28.232C10.1577 32.1074 12.9791 35.4278 16.6695 36.07Z" fill="#FFCAA6"/>
<path d="M23.1606 22.0795V28.3715C23.1606 32.6324 19.7041 36.1241 15.4586 36.1818C14.9788 36.1888 14.5094 36.1504 14.0521 36.07C17.7252 35.4384 20.5431 32.219 20.5431 28.3715V22.0795C20.5431 21.1145 19.7615 20.3345 18.7982 20.3345H21.4155C22.379 20.3345 23.1606 21.1143 23.1606 22.0795Z" fill="#FFAA80"/>
<path d="M29.6692 52.1045V52.2878C29.6692 53.331 28.8224 54.1778 27.7792 54.1778H2.92186C1.87866 54.1778 1.03186 53.331 1.03186 52.2878V52.1045C1.03186 45.9189 4.9478 40.6635 10.4214 38.6553C10.5517 38.608 10.6841 38.5609 10.8163 38.5173C12.2394 38.041 13.7629 37.7839 15.3484 37.7839H15.3522C16.938 37.7839 18.4612 38.041 19.8843 38.5173C20.0165 38.5609 20.1489 38.608 20.2792 38.6553C25.7645 40.6677 29.6692 45.9303 29.6692 52.1045Z" fill="#FFE2E2"/>
<path d="M29.6692 52.1041V52.2873C29.6692 53.3308 28.8228 54.1787 27.7794 54.1787H25.1621C26.2056 54.1787 27.0519 53.3308 27.0519 52.2873C27.0519 47.0711 24.4977 42.6984 20.6218 40.1549C18.6003 38.8136 16.3285 38.0498 14.0417 37.8428C14.4709 37.8027 14.9073 37.7835 15.3486 37.7835H15.3521C16.9382 37.7835 18.4616 38.0418 19.8835 38.518C20.0162 38.56 20.1489 38.6087 20.2796 38.6559C25.7647 40.6696 29.6692 45.9323 29.6692 52.1041Z" fill="#FFCFCF"/>
<path d="M16.659 37.8428C14.3319 38.0532 12.0681 38.8351 10.079 40.1549C6.23076 42.68 3.64888 47.0277 3.64888 52.2873C3.64888 53.3307 4.49521 54.1787 5.53865 54.1787H2.92138C1.87794 54.1787 1.03162 53.3307 1.03162 52.2873V52.104C1.03162 45.906 4.95623 40.6623 10.4209 38.656C10.5517 38.6089 10.6844 38.5602 10.817 38.5182C12.2392 38.042 13.7624 37.7837 15.3484 37.7837H15.3519C15.7937 37.7835 16.2299 37.8027 16.659 37.8428Z" fill="#FFEFEE"/>
<path d="M17.8663 35.7625V39.3062C17.0717 40.682 15.853 42.7984 15.7944 42.8992H14.9084C14.8499 42.7984 13.6288 40.682 12.8342 39.3062V35.7625H17.8663Z" fill="#FFBB98"/>
<path d="M15.3505 35.7625V42.8992H14.9084C14.8499 42.7984 13.6288 40.682 12.8342 39.3062V35.7625H15.3505V35.7625Z" fill="#FFCAA6"/>
<path d="M17.6558 12.7783H13.0447C10.0046 12.7783 7.54016 15.2427 7.54016 18.2828V20.3338L7.5404 24.6798C11.7266 23.6978 18.1503 20.3345 18.1503 20.3345C17.9837 21.8125 14.9075 24.2657 14.9075 24.2657C20.3101 24.3529 23.1603 20.3338 23.1603 20.3338V18.2828C23.1603 15.2429 20.6959 12.7783 17.6558 12.7783Z" fill="#B76C6C"/>
<path d="M15.6627 12.779C12.6212 12.779 10.1574 15.2427 10.1574 18.2824V23.8834C9.24313 24.2097 8.34969 24.4888 7.54016 24.6791V18.2824C7.54016 15.2427 10.0039 12.779 13.0454 12.779H15.6627V12.779Z" fill="#C98585"/>
<path d="M23.1606 18.2842V20.3345C23.1606 20.3345 20.3094 24.3531 14.9071 24.2657C14.9071 24.2657 15.1131 24.1016 15.4202 23.833C16.6776 23.4505 17.7102 22.866 18.5106 22.2835C19.7898 21.3526 20.5431 19.8646 20.5431 18.2825C20.5431 15.2429 18.0775 12.7792 15.0379 12.7792H17.6554C20.6959 12.7789 23.1606 15.2436 23.1606 18.2842Z" fill="#965959"/>
<path d="M45.6654 30.6491C45.6433 30.7026 45.1856 31.8121 45.1645 31.8653C43.9547 34.7024 40.1454 34.7029 38.9353 31.8653C38.9294 31.8508 38.9238 31.8363 38.918 31.822L38.4344 30.6494C36.8388 26.8122 31.0748 27.9419 31.0748 32.1116V40.5918C31.0748 42.572 31.8103 44.5005 33.1884 45.922C34.544 47.3165 34.728 48.2343 36.5121 52.8794C37.2905 54.8952 40.2961 54.464 40.4496 52.2916C40.4496 52.2916 40.6788 46.0855 40.778 43.3909C40.8033 42.7068 41.3651 42.1668 42.0499 42.1668C42.7345 42.1668 43.2966 42.7068 43.3219 43.3909C43.4212 46.0853 43.6502 52.2916 43.6502 52.2916C43.8021 54.4412 46.8033 54.9116 47.5877 52.8794L49.2815 48.4698C49.6493 47.5202 50.2022 46.6516 50.9116 45.922C52.2898 44.5005 53.0252 42.5723 53.0252 40.5918V32.1116C53.0252 27.9327 47.257 26.8218 45.6654 30.6491Z" fill="#FFE2E2"/>
<path d="M40.1776 53.1939C39.3948 54.5392 37.1659 54.5744 36.512 52.8798C34.7284 48.2345 34.5432 47.3158 33.1885 45.9212C31.8104 44.5009 31.0745 42.572 31.0745 40.5916V32.1119C31.0745 28.9525 34.3862 27.5392 36.6831 28.7087C35.4924 29.2876 34.5901 30.4619 34.5901 32.1119V40.5916C34.5901 42.572 35.326 44.5009 36.7042 45.9212C38.0588 47.3158 38.244 48.2345 40.0276 52.8798C40.0721 52.9923 40.1211 53.0978 40.1776 53.1939Z" fill="#FFEFEE"/>
<path d="M53.0261 32.1119V40.5915C53.0261 42.572 52.2901 44.5009 50.912 45.9212C50.2019 46.6501 49.6487 47.5197 49.2808 48.4689L47.5886 52.8798C46.93 54.5861 44.7081 54.5275 43.9253 53.1915C43.9792 53.0954 44.0308 52.99 44.073 52.8798L45.7651 48.4689C46.1331 47.5197 46.6862 46.6501 47.3964 45.9212C48.7745 44.5009 49.5104 42.572 49.5104 40.5915V32.1119C49.5104 30.4595 48.6081 29.2876 47.4198 28.7087C49.7165 27.5415 53.0261 28.9454 53.0261 32.1119Z" fill="#FFCFCF"/>
<path d="M12.2438 26.985C12.6524 26.5764 12.6524 25.914 12.2438 25.5054C11.8352 25.0968 11.1728 25.0968 10.7642 25.5054C10.3556 25.914 10.3556 26.5764 10.7642 26.985C11.1728 27.3936 11.8352 27.3936 12.2438 26.985Z" fill="#5F266D"/>
<path d="M19.1966 27.2915C19.7745 27.2915 20.2429 26.8231 20.2429 26.2453C20.2429 25.6675 19.7745 25.199 19.1966 25.199C18.6188 25.199 18.1504 25.6675 18.1504 26.2453C18.1504 26.8231 18.6188 27.2915 19.1966 27.2915Z" fill="#5F266D"/>
<path d="M20.1808 37.6272C19.4306 37.3785 18.8041 37.2403 18.8041 37.2403V36.404C21.7804 35.1508 24.0972 32.0435 24.0972 28.3717C24.0972 22.8271 24.0972 24.4328 24.0972 18.2819C24.0972 16.2171 23.1199 14.3772 21.6058 13.2006L23.4456 6.08971C23.5535 5.67955 23.3683 5.24596 22.998 5.03737L15.8097 1.00143C15.5238 0.842053 15.1769 0.842053 14.891 1.00143L7.70267 5.03737C7.33236 5.24596 7.1472 5.67955 7.25502 6.08971L9.09486 13.2006C7.5808 14.3772 6.60345 16.2171 6.60345 18.2819C6.60345 21.6353 6.60345 21.1096 6.60345 24.6803V27.8983C6.18158 28.4725 4.44017 30.4835 1.22455 29.6913C0.678689 29.5549 0.133065 29.9317 0.0690802 30.4975C0.0597052 30.5749 -0.664514 37.7491 5.2347 40.6905C2.07017 43.5093 0.0948613 47.5692 0.0948613 52.2874C0.0948613 53.846 1.36283 55.1163 2.92142 55.1163H27.7792C29.3378 55.1163 30.6058 53.846 30.6058 52.2874C30.6058 45.22 26.0737 39.5578 20.1808 37.6272ZM18.9972 39.2256C19.135 39.2646 19.8878 39.4963 19.998 39.5514L17.4714 43.9272L16.8761 42.8983C16.8988 42.8589 18.9745 39.265 18.9972 39.2256ZM15.3503 2.89283L21.4511 6.3194L19.916 12.2514C19.2128 11.9866 18.4511 11.8413 17.6566 11.8413H13.0441C12.2495 11.8413 11.4878 11.9866 10.7847 12.2514L9.25189 6.3194L15.3503 2.89283ZM8.47845 18.2819C8.47845 15.7659 10.5274 13.7163 13.0441 13.7163H17.6566C20.177 13.7163 22.2222 15.7701 22.2222 18.2819C22.2222 18.9276 22.2222 19.3614 22.2222 20.0092C21.9995 20.2764 21.5589 20.7569 20.9097 21.2725C20.1245 21.896 19.037 22.5663 17.6589 22.9671C18.137 22.428 18.5706 21.8421 18.8308 21.2725C19.5817 19.6783 18.3932 19.1521 17.7152 19.503C17.6847 19.5194 16.1144 20.3397 14.0495 21.2725C12.3363 22.0506 10.2808 22.9085 8.47845 23.4546C8.47845 21.1804 8.47845 19.9026 8.47845 18.2819ZM8.47845 25.4046C10.6206 24.8116 13.1378 23.7569 15.123 22.8499C14.8581 23.0889 14.5886 23.321 14.3238 23.5319C13.6366 24.0836 14.0179 25.1875 14.8933 25.203C18.2753 25.2569 20.7316 23.8483 22.2222 22.6249V28.3717C22.2222 34.3251 14.987 37.5965 10.5949 33.2631C8.19064 30.8941 8.47845 28.4285 8.47845 25.4046ZM1.90189 31.7092C4.03236 31.9249 5.71049 31.1936 6.85424 30.3053C7.52127 33.0698 9.43611 35.2996 11.8968 36.3892V37.2407C10.1188 37.645 8.38002 38.4192 6.92924 39.3827C2.57221 37.7842 1.94877 33.6358 1.90189 31.7092ZM13.8245 42.8983L13.2292 43.9272C11.4454 40.837 12.0138 41.8216 10.7027 39.5514C10.8581 39.4891 11.3399 39.3253 11.7035 39.2256C12.1467 39.9956 12.7535 41.0353 13.8245 42.8983ZM14.4128 53.2413H2.92142C2.39642 53.2413 1.96986 52.8124 1.96986 52.2874C1.96986 46.9401 4.90799 42.5008 8.98939 40.3319L9.57533 41.3491L12.4183 46.271C12.7781 46.8944 13.6797 46.8958 14.0425 46.271L14.4128 45.6288V53.2413ZM13.773 39.0616C13.7725 39.0609 13.7723 39.0604 13.7718 39.0597V36.9731C14.8448 37.1718 15.9086 37.1671 16.9291 36.9735V39.0562C16.8456 39.201 15.7837 41.0395 15.3503 41.7923C15.2146 41.5572 14.5607 40.4219 13.773 39.0616ZM27.7792 53.2413H16.2878V45.6264L16.6605 46.271C17.0167 46.893 17.921 46.897 18.2824 46.271L21.7113 40.3319C25.8707 42.5852 28.7308 46.9802 28.7308 52.2874C28.7308 52.8124 28.3042 53.2413 27.7792 53.2413Z" fill="#5F266D"/>
<path d="M15.3503 31.5382C17.7676 31.5382 18.4701 28.2382 16.7776 28.2382C16.2791 28.2382 15.8401 28.6422 15.8401 29.1757C15.8401 29.4452 15.6198 29.6632 15.3503 29.6632C15.0808 29.6632 14.8628 29.4452 14.8628 29.1757C14.8628 28.6577 14.4433 28.2382 13.9253 28.2382C13.4097 28.2382 12.9925 28.653 12.9878 29.1686V29.1757C12.9878 30.4917 14.0643 31.5382 15.3503 31.5382Z" fill="#5F266D"/>
<path d="M13.1055 8.64254H14.413V9.95012C14.413 10.4679 14.8328 10.8876 15.3505 10.8876C15.8683 10.8876 16.288 10.4679 16.288 9.95012V8.64254H17.5956C18.1134 8.64254 18.5331 8.22277 18.5331 7.70504C18.5331 7.1873 18.1134 6.76754 17.5956 6.76754H16.288V5.45996C16.288 4.94223 15.8683 4.52246 15.3505 4.52246C14.8328 4.52246 14.413 4.94223 14.413 5.45996V6.76754H13.1055C12.5877 6.76754 12.168 7.1873 12.168 7.70504C12.168 8.22277 12.5877 8.64254 13.1055 8.64254Z" fill="#5F266D"/>
<path d="M4.99331 49.1491H4.65112C4.13315 49.1491 3.71362 49.5686 3.71362 50.0866C3.71362 50.6046 4.13315 51.0241 4.65112 51.0241H4.99331C5.51128 51.0241 5.93081 50.6046 5.93081 50.0866C5.93081 49.5686 5.51128 49.1491 4.99331 49.1491Z" fill="#5F266D"/>
<path d="M11.087 49.1491H8.50891C7.99094 49.1491 7.57141 49.5686 7.57141 50.0866C7.57141 50.6046 7.99094 51.0241 8.50891 51.0241H11.087C11.605 51.0241 12.0245 50.6046 12.0245 50.0866C12.0245 49.5686 11.605 49.1491 11.087 49.1491Z" fill="#5F266D"/>
<path d="M50.141 27.4624C48.2262 27.0803 45.8332 27.8046 44.7996 30.2889C44.7996 30.2913 44.7996 30.2913 44.7996 30.2913C44.3229 31.4489 43.8834 33.0569 42.0504 33.0569C41.0887 33.0569 40.2333 32.5113 39.7957 31.4913C39.7957 31.4889 39.7863 31.4678 39.784 31.4655L39.3011 30.2889C38.2676 27.8046 35.8769 27.078 33.9644 27.46C32.059 27.8397 30.1371 29.4264 30.1371 32.1124V40.5921C30.1371 42.8678 30.9832 44.9936 32.516 46.5756C33.7235 47.8171 33.8583 48.5882 35.6379 53.2155C36.7781 56.1721 41.1595 55.5276 41.3847 52.3577C41.3847 52.346 41.3871 52.3366 41.3871 52.3249L41.7152 43.4256C41.7319 43.0003 42.3689 43.0007 42.3855 43.4256L42.7136 52.3249C42.7136 52.3366 42.7136 52.346 42.716 52.3577C42.9344 55.4997 47.3142 56.1895 48.4629 53.2155C50.2732 48.4989 50.3965 47.7974 51.5847 46.5733C53.1176 44.9913 53.9636 42.8678 53.9636 40.5921V32.1124C53.9636 29.4264 52.0418 27.8421 50.141 27.4624ZM52.0886 40.5921C52.0886 42.378 51.4301 44.0397 50.2394 45.2678C48.7174 46.8346 48.4821 47.9378 46.7144 52.5405C46.2867 53.6399 44.6794 53.3796 44.5863 52.2381L44.2582 43.3553C44.216 42.1624 43.2457 41.2296 42.0504 41.2296C40.8551 41.2296 39.8847 42.1624 39.8426 43.3553L39.5144 52.2381C39.4197 53.399 37.807 53.6238 37.3863 52.5428C35.6015 47.8792 35.3522 46.7995 33.8613 45.2702C32.6683 44.0397 32.0121 42.378 32.0121 40.5921V32.1124C32.0121 30.2224 33.5362 29.2389 34.9418 29.2389C37.0816 29.2389 37.5553 30.9728 38.0636 32.2085C38.234 32.8898 39.5754 34.9319 42.0504 34.9319C45.2763 34.9319 46.1264 31.9638 46.5316 31.0085C47.1996 29.403 48.6949 29.0842 49.773 29.2999C50.8418 29.5132 52.0886 30.378 52.0886 32.1124V40.5921V40.5921Z" fill="#5F266D"/>
</svg>
