<svg width="60" height="60" viewBox="0 0 60 60" fill="none" xmlns="http://www.w3.org/2000/svg">
<path d="M53.2697 41.2744H47.2594C46.5802 41.2744 45.9985 41.7596 45.8761 42.428L44.6494 49.1353C44.3541 50.7511 43.1747 51.9788 41.5725 52.3393C39.9746 52.6983 38.3672 52.0791 37.4194 50.7619L33.4964 45.3052C33.083 44.7296 32.4689 44.37 31.8118 44.3189C31.0158 44.2603 30.2635 44.6039 29.8004 45.2485L25.8366 50.7614C25.0688 51.8293 23.8894 52.4419 22.6004 52.4419C22.2666 52.4419 21.9291 52.4007 21.5977 52.3191C20.0658 51.9446 18.8827 50.6489 18.5846 49.0168L17.3789 42.428C17.2566 41.7596 16.6749 41.2744 15.9957 41.2744H9.98535C9.21004 41.2744 8.5791 41.9054 8.5791 42.6807V57.3188C8.5791 58.0941 9.21004 58.725 9.98535 58.725H53.2697C54.045 58.725 54.676 58.0941 54.676 57.3188V42.6807C54.676 41.9054 54.0455 41.2744 53.2697 41.2744Z" fill="#E6E7E8"/>
<path d="M15.0473 24.4823L19.5276 48.9661C19.7545 50.2064 20.6597 51.1481 21.8892 51.4247C23.1192 51.7003 24.3394 51.2367 25.0748 50.2139L29.0386 44.7009C29.6447 43.8572 30.5887 43.3739 31.6275 43.3739C32.6662 43.3739 33.6098 43.8572 34.2159 44.7009L38.1797 50.2139C38.775 51.0417 39.6872 51.503 40.665 51.503C40.8961 51.503 41.1309 51.4772 41.3658 51.4242C42.5958 51.1477 43.5004 50.2059 43.7273 48.9661L48.2001 24.5138C49.1025 20.9822 47.6892 17.2233 44.684 15.1608L44.4187 15.547L44.684 15.1608C41.5242 12.9914 37.2365 13.1611 34.2576 15.5728L32.8069 16.7466C32.1234 17.3006 31.1315 17.3006 30.4476 16.7466L28.9973 15.5728C26.0184 13.1616 21.7312 12.9919 18.5709 15.1608C15.5653 17.2238 14.1525 20.9822 15.0473 24.4823Z" fill="#E6E7E8"/>
<path d="M10.8684 16.3074C10.8895 16.53 11.0648 16.7068 11.287 16.7293L14.76 17.0874C14.7764 17.0888 14.7923 17.0897 14.8088 17.0897C15.0459 17.0897 15.2498 16.9102 15.2747 16.6693C15.3014 16.4114 15.1139 16.1813 14.8566 16.1546L11.7656 15.8358L11.6077 14.1736C11.5866 13.951 11.4113 13.7743 11.1891 13.7518L7.7161 13.3936C7.45828 13.3725 7.22813 13.5544 7.20188 13.8122C7.17516 14.07 7.36266 14.3002 7.62 14.3269L10.7109 14.6457L10.8684 16.3074Z" fill="#E6E7E8"/>
<path d="M15.2517 9.18983L14.1361 10.432C13.987 10.598 13.9758 10.8469 14.1094 11.0259L16.1995 13.8225C16.2914 13.9458 16.4325 14.0105 16.5755 14.0105C16.673 14.0105 16.7714 13.9805 16.8558 13.9172C17.063 13.7625 17.1056 13.4686 16.9505 13.2614L15.0905 10.7723L16.2061 9.53014C16.3551 9.3642 16.3664 9.1153 16.2328 8.93624L14.1426 6.1392C13.9875 5.93202 13.694 5.88889 13.4864 6.04452C13.2792 6.1992 13.2365 6.49311 13.3912 6.7003L15.2517 9.18983Z" fill="#E6E7E8"/>
<path d="M21.1224 11.6761C21.1434 11.6761 21.1645 11.6747 21.1856 11.6719C21.442 11.6372 21.622 11.4014 21.5874 11.1445L21.172 8.0658L22.7513 7.52205C22.9627 7.44939 23.093 7.23798 23.0634 7.01627L22.5966 3.55642C22.5619 3.29955 22.3238 3.12048 22.0692 3.1547C21.8128 3.18939 21.6328 3.42517 21.6675 3.68205L22.0828 6.7608L20.5036 7.30455C20.2922 7.3772 20.1619 7.58861 20.1914 7.81033L20.6583 11.2702C20.6902 11.505 20.8917 11.6761 21.1224 11.6761Z" fill="#E6E7E8"/>
<path d="M51.3947 39.8685H45.3849C44.9321 39.8685 44.5439 40.192 44.4628 40.6373L43.2361 47.3446C42.9061 49.1488 41.5899 50.519 39.8007 50.9217C39.4646 50.9971 39.1228 51.0356 38.7853 51.0356C37.3407 51.0356 36.0211 50.3521 35.1638 49.1606L31.2408 43.7038C30.9244 43.2637 30.4402 42.9534 29.9002 42.9112C29.2622 42.8615 28.6735 43.1362 28.306 43.6476L24.3422 49.1606C23.4764 50.3643 22.1485 51.036 20.7254 51.036C20.3583 51.036 19.9847 50.9915 19.6116 50.9001C17.8655 50.4731 16.5718 48.9946 16.2483 47.2265L15.0422 40.6373C14.9607 40.192 14.5725 39.8685 14.1202 39.8685H8.11035C7.59238 39.8685 7.17285 40.2881 7.17285 40.806V55.4437C7.17285 55.9617 7.59238 56.3812 8.11035 56.3812H51.3947C51.9127 56.3812 52.3322 55.9617 52.3322 55.4437V40.806C52.3322 40.2881 51.9127 39.8685 51.3947 39.8685Z" fill="#FA759E"/>
<path d="M8.5791 55.4437V40.806C8.5791 40.2885 8.99863 39.8685 9.5166 39.8685H8.11035C7.59238 39.8685 7.17285 40.2885 7.17285 40.806V55.4437C7.17285 55.9612 7.59238 56.3812 8.11035 56.3812H9.5166C8.99863 56.3812 8.5791 55.9612 8.5791 55.4437Z" fill="white"/>
<path d="M42.5437 13.672C39.5311 11.6044 35.5176 11.7633 32.6775 14.062L31.2272 15.2362C30.3675 15.9323 29.138 15.9323 28.2778 15.2362L26.8275 14.062C23.9873 11.7633 19.9739 11.6044 16.9612 13.672C14.1051 15.6323 12.7762 19.1667 13.6336 22.523L18.1139 47.0072C18.5297 49.2801 21.4706 49.9415 22.8197 48.0651L26.7834 42.5522C28.2426 40.5225 31.2628 40.5225 32.722 42.5522L36.6858 48.0651C38.0348 49.9415 40.9753 49.2801 41.3916 47.0072L45.8719 22.523C46.7287 19.1667 45.3998 15.6323 42.5437 13.672Z" fill="#D4FBFF"/>
<path d="M16.9613 13.6721C15.0067 15.0132 13.7687 17.0921 13.4556 19.3463C14.3003 19.8164 15.2696 20.0888 16.3051 20.0888C16.3154 20.0888 16.3262 20.0888 16.337 20.0888C17.889 20.0668 18.9756 18.5283 18.5738 17.0288L18.5082 16.7836L19.4078 16.8994C20.6509 17.0593 21.8279 16.2511 22.0899 15.0254C22.1532 14.73 22.194 14.4446 22.194 14.2004C22.194 13.5085 22.0707 12.8461 21.8513 12.2297C20.1517 12.1847 18.4365 12.6596 16.9613 13.6721Z" fill="#6DC9F7"/>
<path d="M44.5181 55.9125H41.5298C41.271 55.9125 41.061 56.122 41.061 56.3812C41.061 56.6404 41.271 56.85 41.5298 56.85H44.5181C44.7768 56.85 44.9868 56.6404 44.9868 56.3812C44.9868 56.122 44.7773 55.9125 44.5181 55.9125Z" fill="#3A2C60"/>
<path d="M51.3947 39.3994H45.3849C44.7057 39.3994 44.1239 39.8846 44.0016 40.553L42.7749 47.2603C42.4796 48.8761 41.3002 50.1038 39.698 50.4643C38.1 50.8233 36.4927 50.2041 35.5449 48.8869L31.6219 43.4302C31.2085 42.8546 30.5944 42.495 29.9372 42.4439C29.1413 42.3853 28.3889 42.7289 27.9258 43.3735L23.9621 48.8864C23.1943 49.9543 22.0149 50.5669 20.7258 50.5669C20.3921 50.5669 20.0546 50.5257 19.7232 50.4441C18.1913 50.0696 17.0082 48.7739 16.71 47.1418L15.5044 40.553C15.3821 39.8846 14.8004 39.3994 14.1211 39.3994H8.11035C7.33504 39.3994 6.7041 40.0304 6.7041 40.8057V55.4438C6.7041 56.2191 7.33504 56.85 8.11035 56.85H39.7135C39.9722 56.85 40.1822 56.6405 40.1822 56.3813C40.1822 56.1221 39.9722 55.9125 39.7135 55.9125H8.11035C7.85207 55.9125 7.6416 55.7025 7.6416 55.4438V40.8057C7.6416 40.5469 7.85207 40.3369 8.11035 40.3369H14.1202C14.3466 40.3369 14.5402 40.4986 14.581 40.7213L15.7866 47.31C16.1518 49.305 17.6091 50.8927 19.4991 51.3549C19.9036 51.4538 20.3157 51.5039 20.7249 51.5039C22.3191 51.5039 23.776 50.7493 24.7224 49.4335L28.6861 43.9205C28.9604 43.5389 29.3883 43.3383 29.8632 43.3782C30.2443 43.4077 30.6071 43.6261 30.8593 43.9772L34.7822 49.4339C35.7286 50.7497 37.1874 51.5039 38.7844 51.5039C39.1557 51.5039 39.5321 51.4618 39.9024 51.3783C41.8782 50.9339 43.3318 49.4204 43.6964 47.4282L44.9232 40.7208C44.9639 40.4977 45.1575 40.3364 45.3839 40.3364H51.3943C51.6525 40.3364 51.863 40.5464 51.863 40.8052V55.4433C51.863 55.7021 51.6525 55.9121 51.3943 55.9121H46.3927C46.1339 55.9121 45.9239 56.1216 45.9239 56.3808C45.9239 56.64 46.1339 56.8496 46.3927 56.8496H51.3943C52.1696 56.8496 52.8005 56.2186 52.8005 55.4433V40.8057C52.801 40.0304 52.1705 39.3994 51.3947 39.3994Z" fill="#3A2C60"/>
<path d="M13.1723 22.6073L17.6526 47.0911C17.8795 48.3314 18.7847 49.2731 20.0142 49.5497C21.2442 49.8253 22.4644 49.3617 23.1998 48.3389L27.1636 42.8259C27.7697 41.9822 28.7137 41.4989 29.7525 41.4989C30.7912 41.4989 31.7348 41.9822 32.3409 42.8259L36.3047 48.3389C36.9 49.1667 37.8122 49.628 38.79 49.628C39.0211 49.628 39.2559 49.6022 39.4908 49.5492C40.7208 49.2727 41.6254 48.3309 41.8523 47.0911L46.3251 22.6388C47.2275 19.1072 45.8142 15.3483 42.809 13.2858L42.5437 13.672L42.809 13.2858C39.6492 11.1164 35.3615 11.2861 32.3826 13.6978L30.9319 14.8716C30.2484 15.4256 29.2565 15.4256 28.5726 14.8716L27.1223 13.6978C24.1434 11.2866 19.8562 11.1169 16.6959 13.2858C13.6903 15.3488 12.2775 19.1072 13.1723 22.6073ZM27.9829 15.6005C29.0081 16.4306 30.4969 16.4306 31.522 15.6005L32.9723 14.4267C35.6315 12.2742 39.4579 12.1228 42.2789 14.0588C44.9615 15.9 46.2229 19.2548 45.4106 22.4391L40.9303 46.9228C40.7414 47.955 39.9567 48.4842 39.2859 48.6347C38.6142 48.787 37.679 48.6445 37.0669 47.7914L33.1031 42.2784C32.3184 41.1872 31.0973 40.5614 29.7534 40.5614C28.409 40.5614 27.1879 41.1872 26.4033 42.2784L22.4395 47.7914C21.8273 48.6436 20.8926 48.7875 20.2204 48.6347C19.5492 48.4842 18.7645 47.955 18.5756 46.9228L14.0883 22.4072C13.889 21.6277 13.8173 20.8355 13.8614 20.0569C14.6372 20.3822 15.4744 20.5575 16.3411 20.5575C16.342 20.5575 16.3429 20.5575 16.3439 20.5575C17.205 20.5458 18.0023 20.1375 18.5311 19.4386C18.9937 18.8269 19.1953 18.0788 19.109 17.3334L19.349 17.3644C20.8354 17.5509 22.2398 16.5713 22.5497 15.1233C22.6256 14.768 22.664 14.4577 22.664 14.1998C22.664 13.7123 22.6026 13.2286 22.4901 12.7528C23.9414 12.9117 25.3528 13.4705 26.534 14.4263L27.9829 15.6005ZM17.2265 14.0588C18.5133 13.1756 20.01 12.7322 21.5095 12.7102C21.6501 13.1977 21.7251 13.6973 21.7251 14.2003C21.7251 14.392 21.6937 14.6367 21.6314 14.9278C21.4233 15.9023 20.4717 16.5661 19.4672 16.4348L18.5676 16.3195C18.4111 16.3013 18.2578 16.3584 18.1551 16.4761C18.052 16.5938 18.015 16.7555 18.0553 16.9059L18.1209 17.1506C18.2812 17.7488 18.1579 18.3769 17.782 18.8738C17.429 19.3402 16.8998 19.6125 16.305 19.6209C15.5034 19.6209 14.7098 19.4278 13.9823 19.0791C14.3517 17.0813 15.4884 15.2517 17.2265 14.0588Z" fill="#3A2C60"/>
<path d="M8.99344 14.4324C9.01453 14.655 9.18984 14.8318 9.41203 14.8543L12.885 15.2124C12.9014 15.2138 12.9173 15.2147 12.9337 15.2147C13.1709 15.2147 13.3748 15.0352 13.3997 14.7943C13.4264 14.5364 13.2389 14.3063 12.9816 14.2796L9.89063 13.9608L9.73266 12.2986C9.71156 12.076 9.53625 11.8993 9.31406 11.8768L5.8411 11.5186C5.58328 11.4975 5.35313 11.6794 5.32688 11.9372C5.30016 12.195 5.48766 12.4252 5.745 12.4519L8.83594 12.7707L8.99344 14.4324Z" fill="#3A2C60"/>
<path d="M13.3767 7.31483L12.2611 8.55702C12.112 8.72295 12.1008 8.97186 12.2344 9.15092L14.3245 11.9475C14.4164 12.0708 14.5575 12.1355 14.7005 12.1355C14.798 12.1355 14.8964 12.1055 14.9808 12.0422C15.188 11.8875 15.2306 11.5936 15.0755 11.3864L13.2155 8.89733L14.3311 7.65514C14.4801 7.4892 14.4914 7.2403 14.3578 7.06124L12.2676 4.2642C12.1125 4.05702 11.819 4.01389 11.6114 4.16952C11.4042 4.3242 11.3615 4.61811 11.5162 4.8253L13.3767 7.31483Z" fill="#3A2C60"/>
<path d="M19.2474 9.80111C19.2684 9.80111 19.2895 9.7997 19.3106 9.79689C19.567 9.7622 19.747 9.52642 19.7124 9.26955L19.297 6.1908L20.8763 5.64705C21.0877 5.57439 21.218 5.36298 21.1884 5.14127L20.7216 1.68142C20.6869 1.42455 20.4488 1.24548 20.1942 1.2797C19.9378 1.31439 19.7578 1.55017 19.7925 1.80705L20.2078 4.8858L18.6286 5.42955C18.4172 5.5022 18.2869 5.71361 18.3164 5.93533L18.7833 9.39517C18.8152 9.63002 19.0167 9.80111 19.2474 9.80111Z" fill="#3A2C60"/>
</svg>
