<svg width="60" height="60" viewBox="0 0 60 60" fill="none" xmlns="http://www.w3.org/2000/svg">
<path d="M11.7188 7.96875H6.09375V23.9062H11.7188V7.96875Z" fill="#DCDCD2"/>
<path d="M11.7188 7.96875H6.09375V10.3125H11.7188V7.96875Z" fill="#F0F0E6"/>
<path d="M11.7188 24.375C11.46 24.375 11.25 24.165 11.25 23.9062V8.4375H6.5625V23.9062C6.5625 24.165 6.3525 24.375 6.09375 24.375C5.835 24.375 5.625 24.165 5.625 23.9062V7.96875C5.625 7.71 5.835 7.5 6.09375 7.5H11.7188C11.9775 7.5 12.1875 7.71 12.1875 7.96875V23.9062C12.1875 24.165 11.9775 24.375 11.7188 24.375Z" fill="#785AE6"/>
<path d="M8.90625 13.125C9.6829 13.125 10.3125 12.4954 10.3125 11.7188C10.3125 10.9421 9.6829 10.3125 8.90625 10.3125C8.1296 10.3125 7.5 10.9421 7.5 11.7188C7.5 12.4954 8.1296 13.125 8.90625 13.125Z" fill="#C8C8BE"/>
<path d="M8.90625 20.625C9.6829 20.625 10.3125 19.9954 10.3125 19.2188C10.3125 18.4421 9.6829 17.8125 8.90625 17.8125C8.1296 17.8125 7.5 18.4421 7.5 19.2188C7.5 19.9954 8.1296 20.625 8.90625 20.625Z" fill="#C8C8BE"/>
<path d="M53.9062 7.96875H48.2812V23.9062H53.9062V7.96875Z" fill="#DCDCD2"/>
<path d="M53.9062 24.375H48.2812C48.0225 24.375 47.8125 24.165 47.8125 23.9062V7.96875C47.8125 7.71 48.0225 7.5 48.2812 7.5H53.9062C54.165 7.5 54.375 7.71 54.375 7.96875V23.9062C54.375 24.165 54.165 24.375 53.9062 24.375ZM48.75 23.4375H53.4375V8.4375H48.75V23.4375Z" fill="#785AE6"/>
<path d="M51.0938 13.125C51.8704 13.125 52.5 12.4954 52.5 11.7188C52.5 10.9421 51.8704 10.3125 51.0938 10.3125C50.3171 10.3125 49.6875 10.9421 49.6875 11.7188C49.6875 12.4954 50.3171 13.125 51.0938 13.125Z" fill="#C8C8BE"/>
<path d="M51.0938 20.625C51.8704 20.625 52.5 19.9954 52.5 19.2188C52.5 18.4421 51.8704 17.8125 51.0938 17.8125C50.3171 17.8125 49.6875 18.4421 49.6875 19.2188C49.6875 19.9954 50.3171 20.625 51.0938 20.625Z" fill="#C8C8BE"/>
<path d="M58.5938 23.9062H1.40625V58.5938H58.5938V23.9062Z" fill="#DCDCD2"/>
<path d="M58.5938 59.0625H1.40625C1.1475 59.0625 0.9375 58.8525 0.9375 58.5938V23.9062C0.9375 23.6475 1.1475 23.4375 1.40625 23.4375H7.37625C7.635 23.4375 7.845 23.6475 7.845 23.9062C7.845 24.165 7.63594 24.375 7.37625 24.375H1.875V58.125H58.125V24.375H10.8394C10.5806 24.375 10.3706 24.165 10.3706 23.9062C10.3706 23.6475 10.5806 23.4375 10.8394 23.4375H58.5938C58.8525 23.4375 59.0625 23.6475 59.0625 23.9062V58.5938C59.0625 58.8525 58.8525 59.0625 58.5938 59.0625Z" fill="#785AE6"/>
<path d="M53.9062 1.40625C52.8703 1.40625 52.0312 2.24531 52.0312 3.28125C52.0312 2.24531 51.1922 1.40625 50.1562 1.40625C49.1203 1.40625 48.2812 2.24531 48.2812 3.28125C48.2812 2.24531 47.4422 1.40625 46.4062 1.40625C45.3703 1.40625 44.5312 2.24531 44.5312 3.28125C44.5312 2.24531 43.6922 1.40625 42.6562 1.40625C41.6203 1.40625 40.7812 2.24531 40.7812 3.28125C40.7812 2.24531 39.9422 1.40625 38.9062 1.40625C37.8703 1.40625 37.0312 2.24531 37.0312 3.28125V5.15625V13.5938C37.0312 15.6647 38.7103 17.3438 40.7812 17.3438H52.0312C54.1022 17.3438 55.7812 15.6647 55.7812 13.5938V5.15625V3.28125C55.7812 2.24531 54.9422 1.40625 53.9062 1.40625Z" fill="#FFE885"/>
<path d="M52.0312 15.4688H40.7812C38.7103 15.4688 37.0312 13.7897 37.0312 11.7188V13.5938C37.0312 15.6647 38.7103 17.3438 40.7812 17.3438H52.0312C54.1022 17.3438 55.7812 15.6647 55.7812 13.5938V11.7188C55.7812 13.7897 54.1022 15.4688 52.0312 15.4688Z" fill="#F0DC78"/>
<path d="M53.9062 1.40625C52.8703 1.40625 52.0312 2.24531 52.0312 3.28125C52.0312 2.24531 51.1922 1.40625 50.1562 1.40625C49.1203 1.40625 48.2812 2.24531 48.2812 3.28125C48.2812 2.24531 47.4422 1.40625 46.4062 1.40625C45.3703 1.40625 44.5312 2.24531 44.5312 3.28125C44.5312 2.24531 43.6922 1.40625 42.6562 1.40625C41.6203 1.40625 40.7812 2.24531 40.7812 3.28125C40.7812 2.24531 39.9422 1.40625 38.9062 1.40625C37.8703 1.40625 37.0312 2.24531 37.0312 3.28125V5.15625C37.0312 4.12031 37.8703 3.28125 38.9062 3.28125C39.9422 3.28125 40.7812 4.12031 40.7812 5.15625C40.7812 4.12031 41.6203 3.28125 42.6562 3.28125C43.6922 3.28125 44.5312 4.12031 44.5312 5.15625C44.5312 4.12031 45.3703 3.28125 46.4062 3.28125C47.4422 3.28125 48.2812 4.12031 48.2812 5.15625C48.2812 4.12031 49.1203 3.28125 50.1562 3.28125C51.1922 3.28125 52.0312 4.12031 52.0312 5.15625C52.0312 4.12031 52.8703 3.28125 53.9062 3.28125C54.9422 3.28125 55.7812 4.12031 55.7812 5.15625V3.28125C55.7812 2.24531 54.9422 1.40625 53.9062 1.40625Z" fill="#FFFA96"/>
<path d="M40.7812 12.1875C40.5225 12.1875 40.3125 11.9775 40.3125 11.7188V8.74597C40.3125 8.48722 40.5225 8.27722 40.7812 8.27722C41.04 8.27722 41.25 8.48722 41.25 8.74597V11.7188C41.25 11.9775 41.04 12.1875 40.7812 12.1875Z" fill="#DCC864"/>
<path d="M40.7812 5.7825C40.5225 5.7825 40.3125 5.5725 40.3125 5.31375V3.28125C40.3125 3.0225 40.5225 2.8125 40.7812 2.8125C41.04 2.8125 41.25 3.0225 41.25 3.28125V5.31375C41.25 5.5725 41.04 5.7825 40.7812 5.7825Z" fill="#DCC864"/>
<path d="M44.5312 12.1875C44.2725 12.1875 44.0625 11.9775 44.0625 11.7187V10.8918C44.0625 10.6331 44.2725 10.4231 44.5312 10.4231C44.79 10.4231 45 10.6331 45 10.8918V11.7187C45 11.9775 44.79 12.1875 44.5312 12.1875Z" fill="#DCC864"/>
<path d="M44.5312 9.48845C44.2725 9.48845 44.0625 9.27845 44.0625 9.0197V6.95251C44.0625 6.69376 44.2725 6.48376 44.5312 6.48376C44.79 6.48376 45 6.69376 45 6.95251V9.0197C45 9.27845 44.79 9.48845 44.5312 9.48845Z" fill="#DCC864"/>
<path d="M44.5312 5.43094C44.2725 5.43094 44.0625 5.22094 44.0625 4.96219V3.28125C44.0625 3.0225 44.2725 2.8125 44.5312 2.8125C44.79 2.8125 45 3.0225 45 3.28125V4.96219C45 5.22188 44.79 5.43094 44.5312 5.43094Z" fill="#DCC864"/>
<path d="M48.2812 10.4634C48.0225 10.4634 47.8125 10.2534 47.8125 9.99468V7.8103C47.8125 7.55155 48.0225 7.34155 48.2812 7.34155C48.54 7.34155 48.75 7.55155 48.75 7.8103V9.99468C48.75 10.2534 48.54 10.4634 48.2812 10.4634Z" fill="#DCC864"/>
<path d="M48.2812 5.50875C48.0225 5.50875 47.8125 5.29875 47.8125 5.04V3.28125C47.8125 3.0225 48.0225 2.8125 48.2812 2.8125C48.54 2.8125 48.75 3.0225 48.75 3.28125V5.04C48.75 5.29969 48.54 5.50875 48.2812 5.50875Z" fill="#DCC864"/>
<path d="M52.0312 12.1875C51.7725 12.1875 51.5625 11.9775 51.5625 11.7188V8.3175C51.5625 8.05875 51.7725 7.84875 52.0312 7.84875C52.29 7.84875 52.5 8.05875 52.5 8.3175V11.7188C52.5 11.9775 52.29 12.1875 52.0312 12.1875Z" fill="#DCC864"/>
<path d="M52.0312 6.52313C51.7725 6.52313 51.5625 6.31313 51.5625 6.05438V3.28125C51.5625 3.0225 51.7725 2.8125 52.0312 2.8125C52.29 2.8125 52.5 3.0225 52.5 3.28125V6.05438C52.5 6.31406 52.29 6.52313 52.0312 6.52313Z" fill="#DCC864"/>
<path d="M46.4062 56.7188C43.8178 56.7188 41.7188 54.6197 41.7188 52.0312V17.3438H51.0938V52.0312C51.0938 54.6197 48.9947 56.7188 46.4062 56.7188Z" fill="#FA8CB4"/>
<path d="M46.4062 53.9062C43.8178 53.9062 41.7188 51.8072 41.7188 49.2188V52.0312C41.7188 54.6197 43.8178 56.7188 46.4062 56.7188C48.9947 56.7188 51.0938 54.6197 51.0938 52.0312V49.2188C51.0938 51.8072 48.9947 53.9062 46.4062 53.9062Z" fill="#E678A0"/>
<path d="M51.0938 17.3438H41.7188V25.7812H51.0938V17.3438Z" fill="#A99BE0"/>
<path d="M51.0938 17.3438H41.7188V19.6875H51.0938V17.3438Z" fill="#968CD2"/>
<path d="M46.4062 57.1875C43.5638 57.1875 41.25 54.8747 41.25 52.0312V17.3438C41.25 17.085 41.46 16.875 41.7188 16.875C41.9775 16.875 42.1875 17.085 42.1875 17.3438V52.0312C42.1875 54.3572 44.0803 56.25 46.4062 56.25C48.7322 56.25 50.625 54.3572 50.625 52.0312V17.3438C50.625 17.085 50.835 16.875 51.0938 16.875C51.3525 16.875 51.5625 17.085 51.5625 17.3438V52.0312C51.5625 54.8747 49.2488 57.1875 46.4062 57.1875Z" fill="#785AE6"/>
<path d="M51.0938 26.25H49.7241C49.4654 26.25 49.2554 26.04 49.2554 25.7812C49.2554 25.5225 49.4654 25.3125 49.7241 25.3125H50.6251V17.3438C50.6251 17.085 50.8351 16.875 51.0938 16.875C51.3526 16.875 51.5626 17.085 51.5626 17.3438V25.7812C51.5626 26.04 51.3526 26.25 51.0938 26.25Z" fill="#785AE6"/>
<path d="M43.9556 26.25H41.7188C41.46 26.25 41.25 26.04 41.25 25.7812V17.3438C41.25 17.085 41.46 16.875 41.7188 16.875C41.9775 16.875 42.1875 17.085 42.1875 17.3438V25.3125H43.9556C44.2144 25.3125 44.4244 25.5225 44.4244 25.7812C44.4244 26.04 44.2144 26.25 43.9556 26.25Z" fill="#785AE6"/>
<path d="M52.0312 17.8125H51.1406C50.8819 17.8125 50.6719 17.6025 50.6719 17.3438C50.6719 17.085 50.8819 16.875 51.1406 16.875H52.0312C53.8406 16.875 55.3125 15.4031 55.3125 13.5938V3.28125C55.3125 2.50594 54.6816 1.875 53.9062 1.875C53.1309 1.875 52.5 2.50594 52.5 3.28125C52.5 3.54 52.29 3.75 52.0312 3.75C51.7725 3.75 51.5625 3.54 51.5625 3.28125C51.5625 2.50594 50.9316 1.875 50.1562 1.875C49.3809 1.875 48.75 2.50594 48.75 3.28125C48.75 3.54 48.54 3.75 48.2812 3.75C48.0225 3.75 47.8125 3.54 47.8125 3.28125C47.8125 2.50594 47.1816 1.875 46.4062 1.875C45.6309 1.875 45 2.50594 45 3.28125C45 3.54 44.79 3.75 44.5312 3.75C44.2725 3.75 44.0625 3.54 44.0625 3.28125C44.0625 2.50594 43.4316 1.875 42.6562 1.875C41.8809 1.875 41.25 2.50594 41.25 3.28125C41.25 3.54 41.04 3.75 40.7812 3.75C40.5225 3.75 40.3125 3.54 40.3125 3.28125C40.3125 2.50594 39.6816 1.875 38.9062 1.875C38.1309 1.875 37.5 2.50594 37.5 3.28125V13.5938C37.5 15.4031 38.9719 16.875 40.7812 16.875H43.0566C43.3153 16.875 43.5253 17.085 43.5253 17.3438C43.5253 17.6025 43.3153 17.8125 43.0566 17.8125H40.7812C38.4553 17.8125 36.5625 15.9197 36.5625 13.5938V3.28125C36.5625 1.98937 37.6134 0.9375 38.9062 0.9375C39.6712 0.9375 40.3537 1.30687 40.7812 1.87594C41.2087 1.30687 41.8913 0.9375 42.6562 0.9375C43.4212 0.9375 44.1038 1.30687 44.5312 1.87594C44.9587 1.30687 45.6412 0.9375 46.4062 0.9375C47.1713 0.9375 47.8538 1.30687 48.2812 1.87594C48.7087 1.30687 49.3912 0.9375 50.1562 0.9375C50.9213 0.9375 51.6038 1.30687 52.0312 1.87594C52.4587 1.30687 53.1413 0.9375 53.9062 0.9375C55.1991 0.9375 56.25 1.98937 56.25 3.28125V13.5938C56.25 15.9197 54.3572 17.8125 52.0312 17.8125Z" fill="#785AE6"/>
<path d="M47.985 17.8125H45.4313C45.1725 17.8125 44.9625 17.6025 44.9625 17.3438C44.9625 17.085 45.1725 16.875 45.4313 16.875H47.985C48.2438 16.875 48.4538 17.085 48.4538 17.3438C48.4538 17.6025 48.2438 17.8125 47.985 17.8125Z" fill="#785AE6"/>
<path d="M34.2188 7.03125C34.2188 5.99531 33.3797 5.15625 32.3438 5.15625C33.3797 5.15625 34.2188 4.31719 34.2188 3.28125C34.2188 2.24531 33.3797 1.40625 32.3438 1.40625H31.4062L22.0725 2.56125L22.0312 25.7812L31.4062 27.6562H32.3438C33.3797 27.6562 34.2188 26.8172 34.2188 25.7812C34.2188 24.7453 33.3797 23.9062 32.3438 23.9062C33.3797 23.9062 34.2188 23.0672 34.2188 22.0312C34.2188 20.9953 33.3797 20.1562 32.3438 20.1562C33.3797 20.1562 34.2188 19.3172 34.2188 18.2812C34.2188 17.2453 33.3797 16.4062 32.3438 16.4062C33.3797 16.4062 34.2188 15.5672 34.2188 14.5312C34.2188 13.4953 33.3797 12.6562 32.3438 12.6562C33.3797 12.6562 34.2188 11.8172 34.2188 10.7812C34.2188 9.74531 33.3797 8.90625 32.3438 8.90625C33.3797 8.90625 34.2188 8.06719 34.2188 7.03125Z" fill="#FFE885"/>
<path d="M32.3438 25.7813H31.4062L22.035 23.9072L22.0312 25.7813L31.4062 27.6563H32.3438C33.3797 27.6563 34.2188 26.8172 34.2188 25.7813C34.2188 25.4382 34.1194 25.1204 33.9591 24.8438C33.6337 25.4016 33.0356 25.7813 32.3438 25.7813Z" fill="#F0DC78"/>
<path d="M22.0725 4.43625L31.4063 3.28125H32.3438C33.0356 3.28125 33.6338 3.66094 33.9591 4.21875C34.1203 3.94219 34.2188 3.62437 34.2188 3.28125C34.2188 2.24531 33.3797 1.40625 32.3438 1.40625H31.4063L22.0725 2.56125V4.43625Z" fill="#FFFA96"/>
<path d="M27.9281 5.625H25.7812C25.5225 5.625 25.3125 5.415 25.3125 5.15625C25.3125 4.8975 25.5225 4.6875 25.7812 4.6875H27.9281C28.1869 4.6875 28.3969 4.8975 28.3969 5.15625C28.3969 5.415 28.1869 5.625 27.9281 5.625Z" fill="#DCC864"/>
<path d="M32.3438 5.625H29.9222C29.6635 5.625 29.4535 5.415 29.4535 5.15625C29.4535 4.8975 29.6635 4.6875 29.9222 4.6875H32.3438C32.6026 4.6875 32.8126 4.8975 32.8126 5.15625C32.8126 5.415 32.6026 5.625 32.3438 5.625Z" fill="#DCC864"/>
<path d="M32.3437 9.375H28.3171C28.0584 9.375 27.8484 9.165 27.8484 8.90625C27.8484 8.6475 28.0584 8.4375 28.3171 8.4375H32.3437C32.6025 8.4375 32.8125 8.6475 32.8125 8.90625C32.8125 9.165 32.6025 9.375 32.3437 9.375Z" fill="#DCC864"/>
<path d="M26.9063 13.125H25.7812C25.5225 13.125 25.3125 12.915 25.3125 12.6562C25.3125 12.3975 25.5225 12.1875 25.7812 12.1875H26.9063C27.165 12.1875 27.375 12.3975 27.375 12.6562C27.375 12.915 27.1659 13.125 26.9063 13.125Z" fill="#DCC864"/>
<path d="M32.3437 13.125H29.8734C29.6147 13.125 29.4047 12.915 29.4047 12.6562C29.4047 12.3975 29.6147 12.1875 29.8734 12.1875H32.3437C32.6025 12.1875 32.8125 12.3975 32.8125 12.6562C32.8125 12.915 32.6025 13.125 32.3437 13.125Z" fill="#DCC864"/>
<path d="M28.0256 16.875H25.7812C25.5225 16.875 25.3125 16.665 25.3125 16.4062C25.3125 16.1475 25.5225 15.9375 25.7812 15.9375H28.0256C28.2844 15.9375 28.4944 16.1475 28.4944 16.4062C28.4944 16.665 28.2844 16.875 28.0256 16.875Z" fill="#DCC864"/>
<path d="M32.3437 16.875H30.2624C30.0037 16.875 29.7937 16.665 29.7937 16.4062C29.7937 16.1475 30.0037 15.9375 30.2624 15.9375H32.3437C32.6025 15.9375 32.8125 16.1475 32.8125 16.4062C32.8125 16.665 32.6025 16.875 32.3437 16.875Z" fill="#DCC864"/>
<path d="M32.3437 20.625H27.6843C27.4256 20.625 27.2156 20.415 27.2156 20.1562C27.2156 19.8975 27.4256 19.6875 27.6843 19.6875H32.3437C32.6025 19.6875 32.8125 19.8975 32.8125 20.1562C32.8125 20.415 32.6025 20.625 32.3437 20.625Z" fill="#DCC864"/>
<path d="M26.5041 24.375H25.7813C25.5225 24.375 25.3125 24.165 25.3125 23.9062C25.3125 23.6475 25.5225 23.4375 25.7813 23.4375H26.5041C26.7628 23.4375 26.9728 23.6475 26.9728 23.9062C26.9728 24.165 26.7628 24.375 26.5041 24.375Z" fill="#DCC864"/>
<path d="M30.4097 24.375H28.9012C28.6425 24.375 28.4325 24.165 28.4325 23.9062C28.4325 23.6475 28.6425 23.4375 28.9012 23.4375H30.4097C30.6684 23.4375 30.8784 23.6475 30.8784 23.9062C30.8784 24.165 30.6684 24.375 30.4097 24.375Z" fill="#DCC864"/>
<path d="M22.0312 25.7812V2.34375C22.0312 1.82625 21.6112 1.40625 21.0938 1.40625H17.3438C16.8263 1.40625 16.4062 1.82625 16.4062 2.34375V23.9062L13.5938 31.4062L19.2188 34.2188L22.0312 25.7812Z" fill="#AAD2FF"/>
<path d="M21.0938 1.40625H17.3438C16.8263 1.40625 16.4062 1.82625 16.4062 2.34375V4.21875C16.4062 3.70125 16.8263 3.28125 17.3438 3.28125H21.0938C21.6112 3.28125 22.0312 3.70125 22.0312 4.21875V2.34375C22.0312 1.82625 21.6112 1.40625 21.0938 1.40625Z" fill="#BEE6FF"/>
<path d="M13.5938 31.875C13.5384 31.875 13.4831 31.8656 13.4288 31.845C13.1859 31.7541 13.0631 31.4841 13.155 31.2413L15.9375 23.8209V2.34375C15.9375 1.56844 16.5684 0.9375 17.3438 0.9375H21.0938C21.8691 0.9375 22.5 1.56844 22.5 2.34375V5.87531C22.5 6.13406 22.29 6.34406 22.0313 6.34406C21.7725 6.34406 21.5625 6.13406 21.5625 5.87531V2.34375C21.5625 2.085 21.3516 1.875 21.0938 1.875H17.3438C17.0859 1.875 16.875 2.085 16.875 2.34375V23.9062C16.875 23.9625 16.8647 24.0188 16.845 24.0713L14.0325 31.5712C13.9622 31.7587 13.7831 31.875 13.5938 31.875Z" fill="#785AE6"/>
<path d="M22.0312 13.6697C21.7725 13.6697 21.5625 13.4597 21.5625 13.201V9.92725C21.5625 9.6685 21.7725 9.4585 22.0312 9.4585C22.29 9.4585 22.5 9.6685 22.5 9.92725V13.201C22.5 13.4597 22.29 13.6697 22.0312 13.6697Z" fill="#785AE6"/>
<path d="M19.2187 34.6875C19.169 34.6875 19.1203 34.68 19.0706 34.6631C18.825 34.5815 18.6928 34.3162 18.7743 34.0706L21.5625 25.7053V16.4756C21.5625 16.2168 21.7725 16.0068 22.0312 16.0068C22.29 16.0068 22.5 16.2168 22.5 16.4756V25.7812C22.5 25.8318 22.4915 25.8815 22.4765 25.9293L19.664 34.3668C19.5975 34.5637 19.4146 34.6875 19.2187 34.6875Z" fill="#785AE6"/>
<path d="M32.3437 28.125H31.4062L21.9393 26.2406C21.6853 26.19 21.5203 25.9434 21.5709 25.6894C21.6225 25.4353 21.8793 25.2703 22.1221 25.3219L31.4971 27.1969L32.3437 27.1875C33.119 27.1875 33.75 26.5566 33.75 25.7812C33.75 25.0059 33.119 24.375 32.3437 24.375C32.085 24.375 31.875 24.165 31.875 23.9062C31.875 23.6475 32.085 23.4375 32.3437 23.4375C33.119 23.4375 33.75 22.8066 33.75 22.0312C33.75 21.2559 33.119 20.625 32.3437 20.625C32.085 20.625 31.875 20.415 31.875 20.1562C31.875 19.8975 32.085 19.6875 32.3437 19.6875C33.119 19.6875 33.75 19.0566 33.75 18.2812C33.75 17.5059 33.119 16.875 32.3437 16.875C32.085 16.875 31.875 16.665 31.875 16.4062C31.875 16.1475 32.085 15.9375 32.3437 15.9375C33.119 15.9375 33.75 15.3066 33.75 14.5312C33.75 13.7559 33.119 13.125 32.3437 13.125C32.085 13.125 31.875 12.915 31.875 12.6562C31.875 12.3975 32.085 12.1875 32.3437 12.1875C33.119 12.1875 33.75 11.5566 33.75 10.7812C33.75 10.0059 33.119 9.375 32.3437 9.375C32.085 9.375 31.875 9.165 31.875 8.90625C31.875 8.6475 32.085 8.4375 32.3437 8.4375C33.119 8.4375 33.75 7.80656 33.75 7.03125C33.75 6.25594 33.119 5.625 32.3437 5.625C32.085 5.625 31.875 5.415 31.875 5.15625C31.875 4.8975 32.085 4.6875 32.3437 4.6875C33.119 4.6875 33.75 4.05656 33.75 3.28125C33.75 2.50594 33.119 1.875 32.3437 1.875H31.4062L22.1296 3.02719C21.8775 3.06469 21.6384 2.87625 21.6065 2.61937C21.5746 2.3625 21.7565 2.12813 22.0143 2.09625L31.3481 0.94125L32.3437 0.9375C33.6365 0.9375 34.6875 1.98937 34.6875 3.28125C34.6875 4.04719 34.3181 4.72781 33.7481 5.15625C34.3181 5.58469 34.6875 6.26531 34.6875 7.03125C34.6875 7.79719 34.3181 8.47781 33.7481 8.90625C34.3181 9.33469 34.6875 10.0153 34.6875 10.7812C34.6875 11.5472 34.3181 12.2278 33.7481 12.6562C34.3181 13.0847 34.6875 13.7653 34.6875 14.5312C34.6875 15.2972 34.3181 15.9778 33.7481 16.4062C34.3181 16.8347 34.6875 17.5153 34.6875 18.2812C34.6875 19.0472 34.3181 19.7278 33.7481 20.1562C34.3181 20.5847 34.6875 21.2653 34.6875 22.0312C34.6875 22.7972 34.3181 23.4778 33.7481 23.9062C34.3181 24.3347 34.6875 25.0153 34.6875 25.7812C34.6875 27.0731 33.6365 28.125 32.3437 28.125Z" fill="#785AE6"/>
<path d="M13.5938 31.4062L10.8891 34.1109C10.8179 34.1822 10.7588 34.2647 10.7138 34.3547L2.03537 51.7106C1.63974 52.5028 1.63974 53.4347 2.03537 54.2259L2.50412 55.1634C2.98037 56.1169 3.95443 56.7188 5.01943 56.7188H9.81474C10.9651 56.7188 11.9991 56.0184 12.4257 54.9506L19.1513 38.1366C19.1954 38.0259 19.2188 37.9078 19.2188 37.7887V34.2188L13.5938 31.4062ZM7.9688 52.9688C6.93287 52.9688 6.0938 52.1297 6.0938 51.0938C6.0938 50.0578 6.93287 49.2188 7.9688 49.2188C9.00474 49.2188 9.8438 50.0578 9.8438 51.0938C9.8438 52.1297 9.00474 52.9688 7.9688 52.9688Z" fill="#A2BAFF"/>
<path d="M10.7522 54.8438H5.01939C3.95439 54.8438 2.98033 54.2419 2.50408 53.2894L2.03533 52.3519C1.98377 52.2487 1.95752 52.1391 1.91908 52.0312C1.66408 52.7475 1.69033 53.5378 2.03533 54.2269L2.50408 55.1644C2.98033 56.1169 3.95439 56.7188 5.01939 56.7188H9.8147C10.965 56.7188 11.9991 56.0184 12.4256 54.9506L12.8466 53.8978C12.3235 54.4856 11.5688 54.8438 10.7522 54.8438Z" fill="#96AAF0"/>
<path d="M13.5938 31.4062L10.8891 34.1109C10.8179 34.1822 10.7588 34.2647 10.7138 34.3547L2.03537 51.7106C1.69131 52.3997 1.66506 53.1891 1.91912 53.9062C1.95756 53.7994 1.98381 53.6888 2.03537 53.5856L10.7138 36.2297C10.7588 36.1397 10.8179 36.0572 10.8891 35.9859L13.5938 33.2812L19.2188 36.0938V34.2188L13.5938 31.4062Z" fill="#B4C8FF"/>
<path d="M9.81466 57.1875H5.01935C3.76778 57.1875 2.64372 56.4928 2.08403 55.3735L1.61528 54.436C1.15591 53.5172 1.15591 52.4194 1.61528 51.5006L10.2937 34.1447C10.3603 34.0106 10.4493 33.8878 10.5572 33.7791L13.2618 31.0744C13.4043 30.9319 13.6218 30.8963 13.8028 30.9863L15.329 31.7494C15.5606 31.8656 15.6543 32.1469 15.539 32.3785C15.4228 32.611 15.1425 32.7038 14.91 32.5885L13.6856 31.9763L11.22 34.4419C11.1834 34.4785 11.1543 34.5188 11.1318 34.5628L2.45435 51.9206C2.12528 52.5769 2.12528 53.3606 2.45435 54.0169L2.9231 54.9544C3.32247 55.7541 4.12591 56.25 5.01935 56.25H9.81372C10.7775 56.25 11.6315 55.6716 11.9897 54.7772L18.7162 37.9622C18.7387 37.9069 18.75 37.8478 18.75 37.7888V34.5085L17.5809 33.9235C17.3493 33.8072 17.2556 33.526 17.3709 33.2944C17.4881 33.0619 17.7684 32.97 18 33.0844L19.4278 33.7988C19.5872 33.8794 19.6875 34.0416 19.6875 34.2188V37.7888C19.6875 37.9669 19.6537 38.1422 19.5881 38.31L12.8606 55.125C12.36 56.3775 11.1637 57.1875 9.81466 57.1875ZM7.96872 53.4375C6.67591 53.4375 5.62497 52.3856 5.62497 51.0938C5.62497 49.8019 6.67591 48.75 7.96872 48.75C9.26153 48.75 10.3125 49.8019 10.3125 51.0938C10.3125 52.3856 9.26153 53.4375 7.96872 53.4375ZM7.96872 49.6875C7.19341 49.6875 6.56247 50.3185 6.56247 51.0938C6.56247 51.8691 7.19341 52.5 7.96872 52.5C8.74403 52.5 9.37497 51.8691 9.37497 51.0938C9.37497 50.3185 8.74403 49.6875 7.96872 49.6875Z" fill="#785AE6"/>
<path d="M58.5938 45H1.40625V58.5938H58.5938V45Z" fill="#F0F0E6"/>
<path d="M58.5938 56.25H1.40625V58.5938H58.5938V56.25Z" fill="#DCDCD2"/>
<path d="M58.5938 45H1.40625V47.3438H58.5938V45Z" fill="#FFFFFA"/>
<path d="M58.5938 59.0625H1.40625C1.1475 59.0625 0.9375 58.8525 0.9375 58.5938V45C0.9375 44.7413 1.1475 44.5312 1.40625 44.5312H19.2028C19.4616 44.5312 19.6716 44.7413 19.6716 45C19.6716 45.2588 19.4616 45.4688 19.2028 45.4688H1.875V58.125H58.125V45.4688H37.8862C37.6275 45.4688 37.4175 45.2588 37.4175 45C37.4175 44.7413 37.6275 44.5312 37.8862 44.5312H58.5938C58.8525 44.5312 59.0625 44.7413 59.0625 45V58.5938C59.0625 58.8525 58.8525 59.0625 58.5938 59.0625Z" fill="#785AE6"/>
<path d="M32.5959 45.4688H26.3962C26.1375 45.4688 25.9275 45.2588 25.9275 45C25.9275 44.7413 26.1375 44.5312 26.3962 44.5312H32.5959C32.8547 44.5312 33.0647 44.7413 33.0647 45C33.0647 45.2588 32.8547 45.4688 32.5959 45.4688Z" fill="#785AE6"/>
<path d="M7.5 12.1875L8.82562 14.6119L11.25 15.9375L8.82562 17.2631L7.5 19.6875L6.17438 17.2631L3.75 15.9375L6.17438 14.6119L7.5 12.1875Z" fill="#FFE885"/>
<path d="M6.17438 15.5494L7.5 14.0625L8.82562 15.5494L11.25 15.9375L8.82562 14.6119L7.5 12.1875L6.17438 14.6119L3.75 15.9375L6.17438 15.5494Z" fill="#FFFA96"/>
<path d="M33.75 32.8125L35.0756 35.2369L37.5 36.5625L35.0756 37.8881L33.75 40.3125L32.4244 37.8881L30 36.5625L32.4244 35.2369L33.75 32.8125Z" fill="#FFE885"/>
<path d="M32.4244 36.1744L33.75 34.6875L35.0756 36.1744L37.5 36.5625L35.0756 35.2369L33.75 32.8125L32.4244 35.2369L30 36.5625L32.4244 36.1744Z" fill="#FFFA96"/>
<path d="M7.5 20.1563C7.32844 20.1563 7.17094 20.0626 7.08937 19.9126L5.82938 17.6091L3.525 16.3482C3.375 16.2666 3.28125 16.1091 3.28125 15.9376C3.28125 15.766 3.375 15.6085 3.525 15.5269L5.82938 14.2669L7.08937 11.9635C7.25437 11.6626 7.74656 11.6626 7.91156 11.9635L9.17156 14.2669L11.4759 15.5269C11.625 15.6085 11.7188 15.766 11.7188 15.9376C11.7188 16.1091 11.625 16.2666 11.475 16.3482L9.17062 17.6082L7.91062 19.9126C7.82906 20.0626 7.67156 20.1563 7.5 20.1563ZM4.72687 15.9376L6.39938 16.8526C6.47813 16.8957 6.54188 16.9604 6.585 17.0391L7.5 18.7107L8.415 17.0382C8.45812 16.9594 8.52187 16.8947 8.60063 16.8516L10.2731 15.9376L8.60063 15.0226C8.52187 14.9794 8.45812 14.9147 8.415 14.836L7.5 13.1644L6.585 14.8369C6.54188 14.9157 6.47813 14.9804 6.39938 15.0235L4.72687 15.9376Z" fill="#785AE6"/>
<path d="M33.75 40.7813C33.5784 40.7813 33.4209 40.6876 33.3394 40.5376L32.0794 38.2341L29.775 36.9741C29.625 36.8916 29.5312 36.7341 29.5312 36.5626C29.5312 36.391 29.625 36.2335 29.775 36.1519L32.0794 34.8919L33.3394 32.5885C33.5044 32.2876 33.9966 32.2876 34.1616 32.5885L35.4216 34.8919L37.7259 36.1519C37.875 36.2335 37.9688 36.391 37.9688 36.5626C37.9688 36.7341 37.875 36.8916 37.725 36.9732L35.4206 38.2332L34.1606 40.5366C34.0791 40.6876 33.9216 40.7813 33.75 40.7813ZM30.9769 36.5626L32.6494 37.4776C32.7281 37.5207 32.7919 37.5854 32.835 37.6641L33.75 39.3357L34.665 37.6632C34.7081 37.5844 34.7719 37.5197 34.8506 37.4766L36.5231 36.5626L34.8506 35.6476C34.7719 35.6044 34.7081 35.5397 34.665 35.461L33.75 33.7894L32.835 35.4619C32.7919 35.5407 32.7281 35.6054 32.6494 35.6485L30.9769 36.5626Z" fill="#785AE6"/>
</svg>
