<svg width="58" height="48" viewBox="0 0 58 48" fill="none" xmlns="http://www.w3.org/2000/svg">
<path d="M56.338 5.30435H29.1069C29.0193 5.30435 28.9344 5.28232 28.8679 5.24154L24.3796 2.51998C24.1649 2.39013 23.9146 2.32123 23.6544 2.32123H10.8768C10.1661 2.32123 9.58817 2.83826 9.58817 3.47341V5.0892C9.58817 5.60107 9.96551 6.03045 10.4825 6.18045V8.32029C10.0429 7.4906 9.17192 6.92248 8.16879 6.92248C6.72504 6.92248 5.55083 8.09716 5.55083 9.54045C5.55083 9.5606 5.55083 9.58029 5.55129 9.60045C5.32723 9.53388 5.09426 9.49826 4.85708 9.49545C4.17364 9.49545 3.51879 9.74716 3.02567 10.2276C2.53301 10.7086 2.25692 11.3522 2.24848 12.0408C2.2377 12.9234 2.68489 13.747 3.41192 14.2251C3.40489 14.3015 3.40161 14.3775 3.40161 14.4529C3.40161 15.8967 4.57629 17.0709 6.01958 17.0709C6.20333 17.0709 6.38239 17.0456 6.55817 17.0086C5.59348 21.4448 8.33661 24.8358 10.1314 27.0525C10.8046 27.8836 11.3858 28.6017 11.5672 29.1098C11.8733 29.9672 11.8007 31.1348 11.7083 32.6133C11.5593 35.0039 11.3554 38.2776 12.8029 42.1758C13.5111 44.1586 16.6536 47.8828 17.9488 47.5284C18.2268 47.4525 18.6646 47.1754 18.4724 46.1676C18.0233 43.8117 17.7097 37.2604 19.7043 33.1425C20.3324 31.8464 21.5675 31.0725 23.0094 31.0725C24.4508 31.0725 25.6865 31.8464 26.3146 33.1425C28.3096 37.2614 27.996 43.8117 27.5465 46.1676C27.3543 47.175 27.7921 47.4525 28.07 47.5284C28.1282 47.5444 28.1896 47.5519 28.2547 47.5519C29.6422 47.5519 32.5396 44.07 33.2141 42.1809C34.6639 38.2776 34.46 35.0034 34.311 32.6128C34.2186 31.1344 34.146 29.9662 34.4521 29.1094C34.6335 28.6012 35.2147 27.8836 35.8879 27.0525C37.3696 25.2229 39.4963 22.5923 39.6519 19.2351C39.6749 19.1864 39.7025 19.1414 39.7222 19.0903C39.7452 19.0317 39.7663 18.9722 39.785 18.9122C41.075 19.379 42.5216 18.7462 43.0461 17.4647C43.5843 16.1494 42.9524 14.6414 41.6375 14.1033C41.3563 13.9879 41.0596 13.9247 40.76 13.9139C40.9189 13.3397 40.8772 12.7336 40.6368 12.1795C40.3588 11.5378 39.8469 11.0433 39.1968 10.7864C38.5457 10.529 37.8341 10.5412 37.1929 10.8192C36.8516 10.9673 36.5558 11.1853 36.3116 11.4511C35.0169 10.2478 33.5085 9.56013 31.9405 9.22357H56.3371C57.0477 9.22357 57.6257 8.70654 57.6257 8.07138V6.4556C57.6266 5.82138 57.0482 5.30435 56.338 5.30435ZM24.3561 9.65716C24.3524 9.6581 24.3486 9.6567 24.3454 9.65763C24.3191 9.66466 24.2961 9.67263 24.2704 9.67967C23.8246 9.80013 23.4022 9.92763 23.0104 10.0556C22.8777 10.012 22.7408 9.96888 22.6011 9.92576V6.24185H23.2072C23.2949 6.24185 23.3793 6.26388 23.4463 6.30466L27.9177 9.01591C26.6507 9.12466 25.4361 9.36935 24.3561 9.65716Z" fill="#E6E7E8"/>
<path d="M35.4908 11.5406C31.8899 6.13918 25.1099 7.34715 21.1349 8.67465C17.1604 7.34715 10.3799 6.13918 6.77896 11.5406C1.48209 19.4864 9.25068 24.6065 10.1338 27.0787C11.0165 29.5504 9.07443 33.9647 11.3699 40.1447C12.2526 42.6168 16.649 47.0653 16.1371 44.3822C15.6257 41.7009 15.4086 35.1914 17.4079 31.065C18.9158 27.9525 23.354 27.9525 24.8619 31.065C26.8611 35.1918 26.6441 41.7009 26.1327 44.3822C25.6213 47.0648 30.0172 42.6164 30.8999 40.1447C33.1954 33.9647 31.2529 29.5504 32.136 27.0787C33.0191 24.6065 40.7877 19.4859 35.4908 11.5406Z" fill="white"/>
<path d="M20.2569 3.89813H9.07629V9.07923H20.2569V3.89813Z" fill="#FFD7E5"/>
<path d="M55.2828 4.58203V6.19781C55.2828 6.57515 54.9158 6.88125 54.463 6.88125H26.7847C26.6113 6.88125 26.4425 6.83531 26.3024 6.75047L21.8141 4.0289C21.6739 3.94406 21.5052 3.89812 21.3317 3.89812H9.00173C8.54892 3.89812 8.18188 3.59203 8.18188 3.21469V1.5989C8.18188 1.22156 8.54892 0.915466 9.00173 0.915466H21.7789C21.9524 0.915466 22.1211 0.961403 22.2613 1.04625L26.7495 3.76781C26.8897 3.85265 27.0584 3.89859 27.2319 3.89859H54.463C54.9158 3.89812 55.2828 4.20422 55.2828 4.58203Z" fill="#0089EF"/>
<path d="M9.77657 7.70528C9.23657 7.69871 8.74345 7.89793 8.36704 8.22746C8.41532 8.0484 8.44345 7.8609 8.44345 7.66637C8.44345 6.4795 7.4811 5.51715 6.29423 5.51715C5.10735 5.51715 4.14501 6.4795 4.14501 7.66637C4.14501 8.02825 4.23548 8.36856 4.39298 8.66762C4.0222 8.31746 3.5272 8.09715 2.97689 8.09012C1.81251 8.07559 0.85673 9.00793 0.842199 10.1723C0.831886 11.0236 1.32782 11.7609 2.0497 12.1031C2.01501 12.2564 1.99486 12.4153 1.99486 12.5789C1.99486 13.7657 2.9572 14.7281 4.14407 14.7281C4.74595 14.7281 5.28923 14.4801 5.67923 14.0817C6.06923 14.4801 6.61251 14.7281 7.21439 14.7281C8.40126 14.7281 9.36361 13.7657 9.36361 12.5789C9.36361 12.3253 9.3172 12.0829 9.23657 11.857C9.39267 11.8964 9.55532 11.9203 9.72361 11.9222C10.888 11.9367 11.8438 11.0043 11.8583 9.83996C11.8733 8.67512 10.9409 7.71934 9.77657 7.70528Z" fill="white"/>
<path d="M9.77657 9.11153C9.23657 9.10496 8.74345 9.30418 8.36704 9.63371C8.41532 9.45465 8.44345 9.26715 8.44345 9.07262C8.44345 7.88574 7.4811 6.9234 6.29423 6.9234C5.10735 6.9234 4.14501 7.88574 4.14501 9.07262C4.14501 9.43449 4.23548 9.77481 4.39298 10.0739C4.0222 9.72371 3.5272 9.5034 2.97689 9.49637C1.81251 9.48184 0.85673 10.4142 0.842199 11.5786C0.831886 12.4298 1.32782 13.1672 2.0497 13.5093C2.01501 13.6626 1.99486 13.8215 1.99486 13.9851C1.99486 15.172 2.9572 16.1343 4.14407 16.1343C4.74595 16.1343 5.28923 15.8864 5.67923 15.4879C6.06923 15.8864 6.61251 16.1343 7.21439 16.1343C8.40126 16.1343 9.36361 15.172 9.36361 13.9851C9.36361 13.7315 9.3172 13.4892 9.23657 13.2632C9.39267 13.3026 9.55532 13.3265 9.72361 13.3284C10.888 13.3429 11.8438 12.4106 11.8583 11.2462C11.8733 10.0814 10.9409 9.12559 9.77657 9.11153Z" fill="#6DC9F7"/>
<path d="M39.5853 12.6637C39.0852 12.4589 38.5536 12.4631 38.0825 12.6314C38.1936 12.4823 38.2883 12.3183 38.36 12.1373C38.796 11.0334 38.2545 9.78467 37.1506 9.34874C36.0467 8.9128 34.798 9.4542 34.362 10.5581C34.2294 10.8947 34.1881 11.2444 34.2252 11.5805C34.0091 11.1187 33.6294 10.7315 33.1203 10.5234C32.0427 10.0823 30.8113 10.5984 30.3702 11.6761C30.0477 12.4636 30.2385 13.3322 30.7841 13.9153C30.6955 14.0451 30.6186 14.1858 30.5586 14.3381C30.1227 15.442 30.6641 16.6908 31.768 17.1267C32.3277 17.348 32.9239 17.3165 33.4335 17.0892C33.65 17.6034 34.0639 18.0333 34.6236 18.2545C35.7275 18.6905 36.9763 18.149 37.4122 17.0451C37.5055 16.8094 37.5514 16.5665 37.5594 16.327C37.6902 16.4208 37.8327 16.5028 37.9883 16.5665C39.066 17.0076 40.2974 16.4915 40.7385 15.4139C41.1791 14.3362 40.663 13.1048 39.5853 12.6637Z" fill="white"/>
<path d="M39.5853 14.07C39.0852 13.8651 38.5536 13.8694 38.0825 14.0376C38.1936 13.8886 38.2883 13.7245 38.36 13.5436C38.796 12.4397 38.2545 11.1909 37.1506 10.755C36.0467 10.319 34.798 10.8605 34.362 11.9644C34.2294 12.3009 34.1881 12.6506 34.2252 12.9867C34.0091 12.525 33.6294 12.1378 33.1203 11.9297C32.0427 11.4886 30.8113 12.0047 30.3702 13.0823C30.0477 13.8698 30.2385 14.7384 30.7841 15.3215C30.6955 15.4514 30.6186 15.592 30.5586 15.7444C30.1227 16.8483 30.6641 18.097 31.768 18.533C32.3277 18.7542 32.9239 18.7228 33.4335 18.4955C33.65 19.0097 34.0639 19.4395 34.6236 19.6608C35.7275 20.0967 36.9763 19.5553 37.4122 18.4514C37.5055 18.2156 37.5514 17.9728 37.5594 17.7333C37.6902 17.827 37.8327 17.909 37.9883 17.9728C39.066 18.4139 40.2974 17.8978 40.7385 16.8201C41.1791 15.7425 40.663 14.5111 39.5853 14.07Z" fill="#6DC9F7"/>
<path d="M54.463 3.42935H45.5375C45.2788 3.42935 45.0688 3.63935 45.0688 3.8981C45.0688 4.15685 45.2788 4.36685 45.5375 4.36685H54.463C54.6641 4.36685 54.8141 4.48029 54.8141 4.58154V6.19732C54.8141 6.29857 54.6641 6.41201 54.463 6.41201H26.7847C26.6971 6.41201 26.6122 6.38998 26.5457 6.3492L22.0579 3.6281C21.8432 3.49779 21.5924 3.42888 21.3322 3.42888H9.00176C8.80395 3.42888 8.65067 3.31357 8.65067 3.2142V1.59842C8.65067 1.49717 8.80067 1.38373 9.00176 1.38373H21.779C21.8666 1.38373 21.9515 1.40576 22.018 1.44654L26.5063 4.1681C26.721 4.29795 26.9713 4.36685 27.2315 4.36685H35.5532C35.8119 4.36685 36.0219 4.15685 36.0219 3.8981C36.0219 3.63935 35.8119 3.42935 35.5532 3.42935H27.2319C27.1443 3.42935 27.0594 3.40732 26.9929 3.36654L22.5046 0.644978C22.2899 0.515134 22.0396 0.446228 21.7794 0.446228H9.00176C8.29114 0.446228 7.71317 0.963259 7.71317 1.59842V3.2142C7.71317 3.72607 8.09051 4.15545 8.60754 4.30545V6.44529C8.16786 5.6156 7.29645 5.04748 6.29379 5.04748C4.85004 5.04748 3.67583 6.22217 3.67583 7.66545C3.67583 7.6856 3.67583 7.70529 3.67629 7.72545C3.45223 7.65888 3.21926 7.62326 2.98208 7.62045C2.30567 7.62138 1.64379 7.87217 1.15067 8.35263C0.658013 8.83357 0.381919 9.47717 0.373482 10.1658C0.3627 11.0484 0.809888 11.872 1.53692 12.3501C1.52989 12.4265 1.52661 12.5025 1.52661 12.5779C1.52661 14.0217 2.70129 15.1959 4.14458 15.1959C4.70426 15.1959 5.23629 15.0215 5.67973 14.6981C6.12317 15.0211 6.6552 15.1959 7.21489 15.1959C8.65864 15.1959 9.83286 14.0212 9.83286 12.5779C9.83286 12.5147 9.83051 12.4519 9.82582 12.389C11.1979 12.3497 12.3102 11.2294 12.3271 9.84467C12.3285 9.74388 12.3224 9.64498 12.3121 9.54748H18.5235C17.6422 10.1625 17.2438 10.664 17.2138 10.7039C17.0577 10.9101 17.098 11.204 17.3047 11.3601C17.3891 11.4244 17.4885 11.4553 17.5869 11.4553C17.729 11.4553 17.8691 11.3911 17.961 11.2692C17.9732 11.2533 19.2238 9.64545 22.6471 8.70701C25.994 7.8042 30.7452 7.3256 33.9229 10.3903C33.9158 10.4076 33.9093 10.4245 33.9027 10.4419C33.7189 10.2979 33.5155 10.1789 33.2961 10.0894C32.6596 9.82873 31.9588 9.83154 31.3236 10.0973C30.6889 10.3636 30.1954 10.8609 29.9347 11.4979C29.6 12.315 29.7135 13.2454 30.2141 13.957C30.1794 14.0254 30.1485 14.0948 30.1208 14.1651C29.864 14.8158 29.8757 15.5273 30.1536 16.169C30.4321 16.8108 30.9435 17.3053 31.5936 17.5622C32.1144 17.7675 32.6736 17.8008 33.2047 17.6634C33.4986 18.127 33.9289 18.4842 34.4497 18.69C34.7643 18.8142 35.0886 18.8733 35.4083 18.8733C36.2572 18.8733 37.0644 18.4523 37.5566 17.7436C37.5477 17.9798 37.5027 18.2184 37.4108 18.4509C37.213 18.952 36.8436 19.3289 36.4007 19.5595C35.7177 21.5756 34.3696 23.2476 33.2839 24.5887C32.5269 25.5234 31.9288 26.2617 31.6935 26.9203C31.3227 27.959 31.4005 29.2115 31.4994 30.7973C31.6513 33.2325 31.8402 36.2634 30.4574 39.9862C29.7974 41.834 27.381 44.3653 26.5607 44.7065C26.564 44.6484 26.5724 44.5711 26.5921 44.4698C27.0791 41.9165 27.4002 35.2303 25.2829 30.8601C24.5061 29.257 22.9161 28.2614 21.1335 28.2614C19.3513 28.2614 17.7618 29.2575 16.985 30.8601C14.8682 35.2298 15.1888 41.9161 15.6758 44.4698C15.6955 44.5711 15.704 44.6489 15.7072 44.7065C14.8869 44.3653 12.47 41.8336 11.8086 39.9806C10.4282 36.2634 10.6171 33.2325 10.7685 30.7973C10.8674 29.2115 10.9452 27.9586 10.5744 26.9203C10.3391 26.2617 9.74145 25.5234 8.98395 24.5883C7.25239 22.4498 4.84629 19.4723 5.55317 15.5934C5.26723 15.8442 4.91895 16.0233 4.52942 16.0945C4.11739 20.062 6.59286 23.1248 8.25598 25.1784C8.92911 26.0095 9.51036 26.7276 9.69176 27.2358C9.99786 28.0931 9.9252 29.2608 9.83286 30.7392C9.68379 33.1298 9.47989 36.4036 10.9274 40.3017C11.6357 42.2845 14.7805 46.0106 16.0733 45.6544C16.3513 45.5784 16.7891 45.3014 16.5969 44.2936C16.1479 41.9376 15.8343 35.3864 17.8288 31.2684C18.4569 29.9723 19.6921 29.1984 21.134 29.1984C22.5754 29.1984 23.811 29.9723 24.4391 31.2684C26.4341 35.3869 26.1205 41.9376 25.671 44.2936C25.4788 45.3009 25.9166 45.5784 26.1946 45.6544C26.2527 45.6703 26.3141 45.6778 26.3793 45.6778C27.7668 45.6778 30.6641 42.1959 31.3386 40.3069C32.7885 36.4036 32.5846 33.1294 32.4355 30.7387C32.3432 29.2603 32.2705 28.0922 32.5766 27.2353C32.758 26.7272 33.3393 26.0095 34.0124 25.1784C35.4214 23.4379 37.4136 20.9733 37.7385 17.8476C37.678 17.8125 37.6185 17.7754 37.5622 17.7351C37.6724 17.5748 37.7722 17.4051 37.8468 17.2162C37.8697 17.1576 37.8908 17.0981 37.9096 17.0381C39.1996 17.505 40.6461 16.8722 41.1707 15.5906C41.7088 14.2753 41.0769 12.7673 39.7621 12.2292C39.4804 12.1139 39.1836 12.0506 38.8846 12.0398C39.2343 10.7686 38.5752 9.40732 37.3213 8.91185C36.6711 8.65545 35.9596 8.66717 35.3179 8.94513C34.9766 9.09326 34.6813 9.31076 34.4371 9.57607C33.14 8.37045 31.6274 7.68513 30.0566 7.34904H54.4621C55.1727 7.34904 55.7507 6.83201 55.7507 6.19685V4.58107C55.7516 3.94638 55.1732 3.42935 54.463 3.42935ZM21.5713 4.43013L26.0441 7.14232C24.7761 7.25013 23.5602 7.49435 22.4797 7.78263C22.4765 7.78357 22.4736 7.78217 22.4704 7.7831C22.439 7.79154 22.4108 7.80092 22.3799 7.80935C21.9402 7.92842 21.5225 8.05451 21.1354 8.18107C21.006 8.13888 20.8621 8.09764 20.7261 8.05545V4.36685H21.3322C21.4194 4.36685 21.5043 4.38935 21.5713 4.43013ZM9.7302 11.4534C9.60598 11.452 9.4827 11.4351 9.35192 11.4023C9.18457 11.3597 9.00692 11.4136 8.89067 11.5415C8.77442 11.6695 8.73786 11.8514 8.79598 12.0145C8.86208 12.1997 8.89583 12.3895 8.89583 12.5789C8.89583 13.5056 8.14208 14.2594 7.21536 14.2594C6.76067 14.2594 6.33458 14.0798 6.01536 13.7536C5.92723 13.6636 5.80629 13.6129 5.6802 13.6129C5.55411 13.6129 5.43364 13.6636 5.34551 13.7536C5.02583 14.0798 4.59973 14.2594 4.14504 14.2594C3.21833 14.2594 2.46458 13.5056 2.46458 12.5789C2.46458 12.4579 2.47911 12.3328 2.5077 12.2072C2.55645 11.9929 2.44958 11.7736 2.25129 11.6798C1.67286 11.4056 1.30395 10.8164 1.31192 10.1784C1.31708 9.74013 1.49286 9.33092 1.80645 9.02482C2.11958 8.7192 2.52411 8.54107 2.97176 8.55888C3.37958 8.56357 3.77004 8.72342 4.07192 9.00795C4.23926 9.16592 4.49567 9.17951 4.67754 9.04029C4.85989 8.90154 4.9152 8.65076 4.80833 8.44826C4.67989 8.20498 4.61426 7.94154 4.61426 7.66638C4.61426 6.73967 5.36801 5.98592 6.29473 5.98592C7.22145 5.98592 7.9752 6.73967 7.9752 7.66638C7.9752 7.80935 7.95504 7.95701 7.9152 8.1056C7.86129 8.30482 7.94473 8.51623 8.12004 8.62545C8.29489 8.7342 8.52082 8.71592 8.67692 8.58045C8.98161 8.31373 9.38145 8.17076 9.77192 8.17404C10.6761 8.18529 11.4027 8.92967 11.3914 9.83435C11.3793 10.7381 10.6227 11.4811 9.7302 11.4534ZM9.78223 7.23654C9.70254 7.23654 9.62426 7.24873 9.54504 7.25529V4.36685H11.0104V6.25779C11.0104 6.51654 11.2204 6.72654 11.4791 6.72654C11.7379 6.72654 11.9479 6.51654 11.9479 6.25779V4.36685H13.1296V7.0406C13.1296 7.29935 13.3396 7.50935 13.5983 7.50935C13.8571 7.50935 14.0671 7.29935 14.0671 7.0406V4.36685H15.3275V6.41248C15.3275 6.67123 15.5375 6.88123 15.7963 6.88123C16.055 6.88123 16.265 6.67123 16.265 6.41248V4.36685H17.5644V6.88123C17.5644 7.13998 17.7744 7.34998 18.0332 7.34998C18.2919 7.34998 18.5019 7.13998 18.5019 6.88123V4.36685H19.7872V8.61045H12.0294C11.6019 7.8042 10.7582 7.24873 9.78223 7.23654ZM36.9777 9.78467C37.8397 10.1254 38.264 11.1033 37.9236 11.9653C37.8711 12.0979 37.798 12.2278 37.7061 12.3511C37.5829 12.517 37.5824 12.7434 37.7057 12.9098C37.8289 13.0758 38.0455 13.1414 38.24 13.0725C38.6211 12.9356 39.0365 12.945 39.4077 13.0969C40.2444 13.4395 40.6466 14.399 40.3044 15.2358C39.9618 16.0725 39.0027 16.4747 38.1655 16.1325C38.0516 16.0856 37.9396 16.0233 37.8322 15.9459C37.6916 15.8451 37.5064 15.8292 37.3518 15.9061C37.1966 15.9825 37.0958 16.1381 37.0902 16.3111C37.0836 16.5075 37.0452 16.6964 36.9754 16.8726C36.6346 17.7342 35.6558 18.1589 34.7952 17.8186C34.3724 17.6517 34.0419 17.3278 33.8643 16.9073C33.8155 16.7911 33.7218 16.6997 33.6046 16.6533C33.5493 16.6317 33.4907 16.6204 33.4325 16.6204C33.3674 16.6204 33.3022 16.634 33.2413 16.6612C32.825 16.8473 32.3629 16.8581 31.9391 16.6908C31.5214 16.5258 31.1933 16.2084 31.0147 15.7964C30.8361 15.3844 30.8286 14.9278 30.9936 14.5097C31.0382 14.3972 31.0972 14.2861 31.1699 14.1801C31.2941 13.9987 31.2754 13.7554 31.1254 13.5947C30.6875 13.1273 30.561 12.4434 30.8029 11.8533C31.1455 11.0165 32.106 10.6144 32.9418 10.9565C33.3191 11.1112 33.6238 11.4033 33.7996 11.7787C33.8971 11.9864 34.1291 12.0942 34.3508 12.0314C34.5716 11.9695 34.715 11.7572 34.6902 11.5289C34.6602 11.2547 34.6963 10.9856 34.7975 10.7297C35.1379 9.86857 36.1161 9.44295 36.9777 9.78467Z" fill="#3A2C60"/>
<path d="M37.8032 4.36688H43.2721C43.5309 4.36688 43.7409 4.15688 43.7409 3.89813C43.7409 3.63938 43.5309 3.42938 43.2721 3.42938H37.8032C37.5445 3.42938 37.3345 3.63938 37.3345 3.89813C37.3345 4.15688 37.5445 4.36688 37.8032 4.36688Z" fill="#3A2C60"/>
</svg>
