<svg width="174" height="44" viewBox="0 0 174 44" fill="none" xmlns="http://www.w3.org/2000/svg">
<path d="M7.32922 8.36C6.12922 8.36 5.14255 8.01333 4.36922 7.32C3.62255 6.6 3.24922 5.72 3.24922 4.68C3.24922 3.61333 3.62255 2.73333 4.36922 2.04C5.14255 1.32 6.12922 0.959998 7.32922 0.959998C8.50255 0.959998 9.46255 1.32 10.2092 2.04C10.9826 2.73333 11.3692 3.61333 11.3692 4.68C11.3692 5.72 10.9826 6.6 10.2092 7.32C9.46255 8.01333 8.50255 8.36 7.32922 8.36ZM10.7692 35.88C10.7692 38.6267 10.0759 40.6 8.68922 41.8C7.30255 43.0267 5.36922 43.64 2.88922 43.64H0.209219V37.84H1.84922C2.59589 37.84 3.12922 37.6933 3.44922 37.4C3.76922 37.1067 3.92922 36.6267 3.92922 35.96V10.68H10.7692V35.88ZM36.727 21.48C36.727 22.12 36.687 22.7867 36.607 23.48H21.127C21.2337 24.8667 21.6737 25.9333 22.447 26.68C23.247 27.4 24.2204 27.76 25.367 27.76C27.0737 27.76 28.2604 27.04 28.927 25.6H36.207C35.8337 27.0667 35.1537 28.3867 34.167 29.56C33.207 30.7333 31.9937 31.6533 30.527 32.32C29.0604 32.9867 27.4204 33.32 25.607 33.32C23.4204 33.32 21.4737 32.8533 19.767 31.92C18.0604 30.9867 16.727 29.6533 15.767 27.92C14.807 26.1867 14.327 24.16 14.327 21.84C14.327 19.52 14.7937 17.4933 15.727 15.76C16.687 14.0267 18.0204 12.6933 19.727 11.76C21.4337 10.8267 23.3937 10.36 25.607 10.36C27.767 10.36 29.687 10.8133 31.367 11.72C33.047 12.6267 34.3537 13.92 35.287 15.6C36.247 17.28 36.727 19.24 36.727 21.48ZM29.727 19.68C29.727 18.5067 29.327 17.5733 28.527 16.88C27.727 16.1867 26.727 15.84 25.527 15.84C24.3804 15.84 23.407 16.1733 22.607 16.84C21.8337 17.5067 21.3537 18.4533 21.167 19.68H29.727ZM49.4155 33.32C47.4688 33.32 45.7355 32.9867 44.2155 32.32C42.6955 31.6533 41.4955 30.7467 40.6155 29.6C39.7355 28.4267 39.2421 27.12 39.1355 25.68H45.8955C45.9755 26.4533 46.3355 27.08 46.9755 27.56C47.6155 28.04 48.4021 28.28 49.3355 28.28C50.1888 28.28 50.8421 28.12 51.2955 27.8C51.7755 27.4533 52.0155 27.0133 52.0155 26.48C52.0155 25.84 51.6821 25.3733 51.0155 25.08C50.3488 24.76 49.2688 24.4133 47.7755 24.04C46.1755 23.6667 44.8421 23.28 43.7755 22.88C42.7088 22.4533 41.7888 21.8 41.0155 20.92C40.2421 20.0133 39.8555 18.8 39.8555 17.28C39.8555 16 40.2021 14.84 40.8955 13.8C41.6155 12.7333 42.6555 11.8933 44.0155 11.28C45.4021 10.6667 47.0421 10.36 48.9355 10.36C51.7355 10.36 53.9355 11.0533 55.5355 12.44C57.1621 13.8267 58.0955 15.6667 58.3355 17.96H52.0155C51.9088 17.1867 51.5621 16.5733 50.9755 16.12C50.4155 15.6667 49.6688 15.44 48.7355 15.44C47.9355 15.44 47.3221 15.6 46.8955 15.92C46.4688 16.2133 46.2555 16.6267 46.2555 17.16C46.2555 17.8 46.5888 18.28 47.2555 18.6C47.9488 18.92 49.0155 19.24 50.4555 19.56C52.1088 19.9867 53.4555 20.4133 54.4955 20.84C55.5355 21.24 56.4421 21.9067 57.2155 22.84C58.0155 23.7467 58.4288 24.9733 58.4555 26.52C58.4555 27.8267 58.0821 29 57.3355 30.04C56.6155 31.0533 55.5621 31.8533 54.1755 32.44C52.8155 33.0267 51.2288 33.32 49.4155 33.32ZM71.7202 33.32C69.7735 33.32 68.0402 32.9867 66.5202 32.32C65.0002 31.6533 63.8002 30.7467 62.9202 29.6C62.0402 28.4267 61.5468 27.12 61.4402 25.68H68.2002C68.2802 26.4533 68.6402 27.08 69.2802 27.56C69.9202 28.04 70.7068 28.28 71.6402 28.28C72.4935 28.28 73.1468 28.12 73.6002 27.8C74.0802 27.4533 74.3202 27.0133 74.3202 26.48C74.3202 25.84 73.9868 25.3733 73.3202 25.08C72.6535 24.76 71.5735 24.4133 70.0802 24.04C68.4802 23.6667 67.1468 23.28 66.0802 22.88C65.0135 22.4533 64.0935 21.8 63.3202 20.92C62.5468 20.0133 62.1602 18.8 62.1602 17.28C62.1602 16 62.5068 14.84 63.2002 13.8C63.9202 12.7333 64.9602 11.8933 66.3202 11.28C67.7068 10.6667 69.3468 10.36 71.2402 10.36C74.0402 10.36 76.2402 11.0533 77.8402 12.44C79.4668 13.8267 80.4002 15.6667 80.6402 17.96H74.3202C74.2135 17.1867 73.8668 16.5733 73.2802 16.12C72.7202 15.6667 71.9735 15.44 71.0402 15.44C70.2402 15.44 69.6268 15.6 69.2002 15.92C68.7735 16.2133 68.5602 16.6267 68.5602 17.16C68.5602 17.8 68.8935 18.28 69.5602 18.6C70.2535 18.92 71.3202 19.24 72.7602 19.56C74.4135 19.9867 75.7602 20.4133 76.8002 20.84C77.8402 21.24 78.7468 21.9067 79.5202 22.84C80.3202 23.7467 80.7335 24.9733 80.7602 26.52C80.7602 27.8267 80.3868 29 79.6402 30.04C78.9202 31.0533 77.8668 31.8533 76.4802 32.44C75.1202 33.0267 73.5335 33.32 71.7202 33.32ZM105.985 21.48C105.985 22.12 105.945 22.7867 105.865 23.48H90.3848C90.4915 24.8667 90.9315 25.9333 91.7048 26.68C92.5048 27.4 93.4782 27.76 94.6248 27.76C96.3315 27.76 97.5182 27.04 98.1848 25.6H105.465C105.092 27.0667 104.412 28.3867 103.425 29.56C102.465 30.7333 101.252 31.6533 99.7848 32.32C98.3182 32.9867 96.6782 33.32 94.8648 33.32C92.6782 33.32 90.7315 32.8533 89.0248 31.92C87.3182 30.9867 85.9848 29.6533 85.0248 27.92C84.0648 26.1867 83.5848 24.16 83.5848 21.84C83.5848 19.52 84.0515 17.4933 84.9848 15.76C85.9448 14.0267 87.2782 12.6933 88.9848 11.76C90.6915 10.8267 92.6515 10.36 94.8648 10.36C97.0248 10.36 98.9448 10.8133 100.625 11.72C102.305 12.6267 103.612 13.92 104.545 15.6C105.505 17.28 105.985 19.24 105.985 21.48ZM98.9848 19.68C98.9848 18.5067 98.5848 17.5733 97.7848 16.88C96.9848 16.1867 95.9848 15.84 94.7848 15.84C93.6382 15.84 92.6648 16.1733 91.8648 16.84C91.0915 17.5067 90.6115 18.4533 90.4248 19.68H98.9848ZM122.033 27.2V33H118.553C116.073 33 114.14 32.4 112.753 31.2C111.367 29.9733 110.673 27.9867 110.673 25.24V16.36H107.953V10.68H110.673V5.24H117.513V10.68H121.993V16.36H117.513V25.32C117.513 25.9867 117.673 26.4667 117.993 26.76C118.313 27.0533 118.847 27.2 119.593 27.2H122.033ZM138.283 27.2V33H134.803C132.323 33 130.39 32.4 129.003 31.2C127.617 29.9733 126.923 27.9867 126.923 25.24V16.36H124.203V10.68H126.923V5.24H133.763V10.68H138.243V16.36H133.763V25.32C133.763 25.9867 133.923 26.4667 134.243 26.76C134.563 27.0533 135.097 27.2 135.843 27.2H138.283ZM163.133 21.48C163.133 22.12 163.093 22.7867 163.013 23.48H147.533C147.64 24.8667 148.08 25.9333 148.853 26.68C149.653 27.4 150.627 27.76 151.773 27.76C153.48 27.76 154.667 27.04 155.333 25.6H162.613C162.24 27.0667 161.56 28.3867 160.573 29.56C159.613 30.7333 158.4 31.6533 156.933 32.32C155.467 32.9867 153.827 33.32 152.013 33.32C149.827 33.32 147.88 32.8533 146.173 31.92C144.467 30.9867 143.133 29.6533 142.173 27.92C141.213 26.1867 140.733 24.16 140.733 21.84C140.733 19.52 141.2 17.4933 142.133 15.76C143.093 14.0267 144.427 12.6933 146.133 11.76C147.84 10.8267 149.8 10.36 152.013 10.36C154.173 10.36 156.093 10.8133 157.773 11.72C159.453 12.6267 160.76 13.92 161.693 15.6C162.653 17.28 163.133 19.24 163.133 21.48ZM156.133 19.68C156.133 18.5067 155.733 17.5733 154.933 16.88C154.133 16.1867 153.133 15.84 151.933 15.84C150.787 15.84 149.813 16.1733 149.013 16.84C148.24 17.5067 147.76 18.4533 147.573 19.68H156.133ZM169.942 33.32C168.742 33.32 167.755 32.9733 166.982 32.28C166.235 31.56 165.862 30.68 165.862 29.64C165.862 28.5733 166.235 27.68 166.982 26.96C167.755 26.24 168.742 25.88 169.942 25.88C171.115 25.88 172.075 26.24 172.822 26.96C173.595 27.68 173.982 28.5733 173.982 29.64C173.982 30.68 173.595 31.56 172.822 32.28C172.075 32.9733 171.115 33.32 169.942 33.32Z" fill="black"/>
</svg>
