<svg width="160" height="12" viewBox="0 0 160 12" fill="none" xmlns="http://www.w3.org/2000/svg">
<path d="M5.97551 0H3.90155L0 12H2.07396L5.97551 0Z" fill="#ED1556"/>
<path d="M11.6806 0H9.60663L5.70508 12H7.77904L11.6806 0Z" fill="#ED1556"/>
<path d="M17.3857 0H15.3117L11.4102 12H13.4841L17.3857 0Z" fill="#ED1556"/>
<path d="M23.0888 0H21.0148L17.1133 12H19.1872L23.0888 0Z" fill="#ED1556"/>
<path d="M28.7939 0H26.7199L22.8184 12H24.8923L28.7939 0Z" fill="#ED1556"/>
<path d="M34.4989 0H32.425L28.5234 12H30.5974L34.4989 0Z" fill="#ED1556"/>
<path d="M40.204 0H38.1301L34.2285 12H36.3025L40.204 0Z" fill="#ED1556"/>
<path d="M45.9071 0H43.8332L39.9316 12H42.0056L45.9071 0Z" fill="#ED1556"/>
<path d="M51.6122 0H49.5383L45.6367 12H47.7107L51.6122 0Z" fill="#ED1556"/>
<path d="M57.3173 0H55.2433L51.3418 12H53.4158L57.3173 0Z" fill="#ED1556"/>
<path d="M63.0224 0H60.9484L57.0469 12H59.1208L63.0224 0Z" fill="#ED1556"/>
<path d="M68.7255 0H66.6515L62.75 12H64.824L68.7255 0Z" fill="#ED1556"/>
<path d="M74.4306 0H72.3566L68.4551 12H70.529L74.4306 0Z" fill="#ED1556"/>
<path d="M80.1357 0H78.0617L74.1602 12H76.2341L80.1357 0Z" fill="#ED1556"/>
<path d="M85.8408 0H83.7668L79.8652 12H81.9392L85.8408 0Z" fill="#ED1556"/>
<path d="M91.5439 0H89.4699L85.5684 12H87.6423L91.5439 0Z" fill="#ED1556"/>
<path d="M97.2489 0H95.175L91.2734 12H93.3474L97.2489 0Z" fill="#ED1556"/>
<path d="M102.954 0H100.88L96.9785 12H99.0525L102.954 0Z" fill="#ED1556"/>
<path d="M108.659 0H106.585L102.684 12H104.758L108.659 0Z" fill="#ED1556"/>
<path d="M114.362 0H112.288L108.387 12H110.461L114.362 0Z" fill="#ED1556"/>
<path d="M120.067 0H117.993L114.092 12H116.166L120.067 0Z" fill="#ED1556"/>
<path d="M125.772 0H123.698L119.797 12H121.871L125.772 0Z" fill="#ED1556"/>
<path d="M131.477 0H129.404L125.502 12H127.576L131.477 0Z" fill="#ED1556"/>
<path d="M137.181 0H135.107L131.205 12H133.279L137.181 0Z" fill="#ED1556"/>
<path d="M142.886 0H140.812L136.91 12H138.984L142.886 0Z" fill="#ED1556"/>
<path d="M148.591 0H146.517L142.615 12H144.689L148.591 0Z" fill="#ED1556"/>
<path d="M154.296 0H152.222L148.32 12H150.394L154.296 0Z" fill="#ED1556"/>
<path d="M160.001 0H157.927L154.025 12H156.099L160.001 0Z" fill="#ED1556"/>
</svg>
